Astrolabe.glyphspackage
{
glyphname = exclam;
layers = (
{
layerId = m01;
shapes = (
{
closed = 1;
nodes = (
(63,550,l),
(70,125,l),
(106,125,l),
(113,550,l)
);
},
{
ref = period;
}
);
width = 175;
},
{
layerId = m002;
shapes = (
{
closed = 1;
nodes = (
(63,550,l),
(70,125,l),
(106,125,l),
(113,550,l)
);
},
{
ref = period;
}
);
width = 175;
}
);
metricLeft = "=period";
metricRight = "=period";
unicode = 33;
}
{
glyphname = parenleft;
layers = (
{
layerId = m01;
shapes = (
{
closed = 1;
nodes = (
(200,-143,l),
(145,-56,o),
(100,65,o),
(100,200,cs),
(100,336,o),
(145,456,o),
(200,543,c),
(181,556,l),
(98,455,o),
(50,350,o),
(50,200,cs),
(50,51,o),
(98,-55,o),
(181,-156,c)
);
}
);
width = 250;
},
{
associatedMasterId = m01;
layerId = "1E7CD8CC-280C-4178-AABC-BCA6642E6CD0";
name = "5 Jul 25 at 08:34";
shapes = (
{
closed = 1;
nodes = (
(230,-93,l),
(120,91,o),
(120,309,o),
(230,493,c),
(221,500,l),
(150,425,o),
(100,305,o),
(100,200,cs),
(100,95,o),
(150,-25,o),
(221,-100,c)
);
}
);
width = 280;
},
{
layerId = m002;
shapes = (
{
closed = 1;
nodes = (
(200,-143,l),
(145,-56,o),
(100,65,o),
(100,200,cs),
(100,336,o),
(145,456,o),
(200,543,c),
(181,556,l),
(98,455,o),
(50,350,o),
(50,200,cs),
(50,51,o),
(98,-55,o),
(181,-156,c)
);
}
);
width = 250;
},
{
associatedMasterId = m002;
layerId = "54B7B8D3-3EB7-41C7-AE05-5E6A0AC314FD";
name = "5 Jul 25 at 08:34";
shapes = (
{
closed = 1;
nodes = (
(230,-93,l),
(120,91,o),
(120,309,o),
(230,493,c),
(221,500,l),
(150,425,o),
(100,305,o),
(100,200,cs),
(100,95,o),
(150,-25,o),
(221,-100,c)
);
}
);
width = 280;
}
);
metricLeft = "=50";
metricRight = "=50";
unicode = 40;
}
{
glyphname = period;
layers = (
{
layerId = m01;
shapes = (
{
closed = 1;
nodes = (
(108,0,o),
(125,17,o),
(125,38,cs),
(125,58,o),
(108,75,o),
(88,75,cs),
(67,75,o),
(50,58,o),
(50,38,cs),
(50,17,o),
(67,0,o),
(88,0,cs)
);
}
);
width = 175;
}
);
unicode = 46;
}
{
glyphname = slash;
layers = (
{
layerId = m01;
shapes = (
{
closed = 1;
nodes = (
(250,550,l),
(201,560,l),
(50,-150,l),
(99,-160,l)
);
}
);
width = 300;
},
{
layerId = m002;
shapes = (
{
closed = 1;
nodes = (
(250,550,l),
(201,560,l),
(50,-150,l),
(99,-160,l)
);
}
);
width = 300;
}
);
metricLeft = "=50";
metricRight = "=|";
unicode = 47;
}
{
glyphname = zero;
layers = (
{
layerId = m01;
shapes = (
{
closed = 1;
nodes = (
(241,0,o),
(275,95,o),
(275,200,cs),
(275,305,o),
(241,400,o),
(150,400,cs),
(59,400,o),
(25,305,o),
(25,200,cs),
(25,95,o),
(59,0,o),
(150,0,cs)
);
},
{
closed = 1;
nodes = (
(98,50,o),
(75,101,o),
(75,200,cs),
(75,299,o),
(98,350,o),
(150,350,cs),
(202,350,o),
(225,299,o),
(225,200,cs),
(225,101,o),
(202,50,o),
(150,50,cs)
);
}
);
width = 300;
}
);
unicode = 48;
}
{
glyphname = one;
layers = (
{
layerId = m01;
shapes = (
{
closed = 1;
nodes = (
(125,0,l),
(125,400,l),
(100,400,l),
(75,375,l),
(75,0,l)
);
},
{
closed = 1;
nodes = (
(95,360,l),
(100,400,l),
(25,390,l),
(25,360,l)
);
}
);
width = 200;
},
{
associatedMasterId = m01;
layerId = "A50F0B33-073F-4684-8660-29CFAEF08EEB";
name = "7 Apr 26 at 19:22";
shapes = (
{
closed = 1;
nodes = (
(150,0,l),
(150,450,l),
(132,450,l),
(110,417,o),
(98,405,o),
(50,400,c),
(50,382,l),
(91,371,o),
(100,356,o),
(100,324,cs),
(100,0,l)
);
},
{
closed = 1;
nodes = (
(200,0,l),
(200,18,l),
(167,20,o),
(150,42,o),
(150,60,c),
(100,60,l),
(100,42,o),
(83,20,o),
(50,18,c),
(50,0,l)
);
}
);
width = 250;
},
{
associatedMasterId = m01;
layerId = "347AC2AC-4FA7-4703-85AE-5131C36C82E9";
name = "8 Apr 26 at 00:48";
shapes = (
{
closed = 1;
nodes = (
(125,0,l),
(125,400,l),
(100,400,l),
(81,379,o),
(61,363,o),
(25,350,c),
(25,325,l),
(75,325,l),
(75,0,l)
);
}
);
visible = 1;
width = 200;
}
);
unicode = 49;
}
{
glyphname = two;
layers = (
{
layerId = m01;
shapes = (
{
closed = 1;
nodes = (
(121,65,o),
(275,186,o),
(275,283,cs),
(275,363,o),
(224,399,o),
(162,399,cs),
(124,399,o),
(83,386,o),
(45,360,c),
(78,332,l),
(102,342,o),
(128,349,o),
(153,349,cs),
(192,349,o),
(225,332,o),
(225,283,cs),
(225,213,o),
(97,101,o),
(25,40,c),
(47,2,l)
);
},
{
closed = 1;
nodes = (
(275,0,l),
(275,50,l),
(64,50,l),
(25,40,l),
(25,0,l)
);
},
{
closed = 1;
nodes = (
(275,30,l),
(275,100,l),
(245,100,l),
(234,22,l)
);
},
{
closed = 1;
nodes = (
(75,290,l),
(86,368,l),
(45,360,l),
(45,290,l)
);
}
);
width = 300;
}
);
unicode = 50;
}
{
glyphname = three;
layers = (
{
layerId = m01;
shapes = (
{
closed = 1;
nodes = (
(-36,-58,l),
(33,-114,o),
(300,-136,o),
(300,48,cs),
(300,174,o),
(167,222,o),
(-61,148,c),
(91,232,l),
(91,112,l),
(-48,112,l),
(133,173,o),
(250,144,o),
(250,48,cs),
(250,-96,o),
(7,-48,o),
(-6,-27,c),
(25,7,l),
(25,-118,l)
);
},
{
closed = 1;
nodes = (
(7,148,l),
(147,127,o),
(275,176,o),
(275,283,cs),
(275,409,o),
(146,429,o),
(45,360,c),
(78,332,l),
(147,361,o),
(225,358,o),
(225,283,cs),
(225,205,o),
(128,167,o),
(-28,181,c),
(91,229,l),
(91,123,l)
);
},
{
closed = 1;
nodes = (
(75,290,l),
(86,368,l),
(45,360,l),
(45,290,l)
);
}
);
width = 325;
},
{
associatedMasterId = m01;
layerId = "DBF63CE0-1A14-497E-9B35-EA23B92855D2";
name = "7 Apr 26 at 20:07";
shapes = (
{
closed = 1;
nodes = (
(146,65,o),
(300,186,o),
(300,283,cs),
(300,363,o),
(249,399,o),
(187,399,cs),
(149,399,o),
(108,386,o),
(70,360,c),
(103,332,l),
(127,342,o),
(153,349,o),
(178,349,cs),
(217,349,o),
(250,332,o),
(250,283,cs),
(250,213,o),
(122,101,o),
(50,40,c),
(72,2,l)
);
},
{
closed = 1;
nodes = (
(100,290,l),
(111,368,l),
(70,360,l),
(70,290,l)
);
},
{
pos = (0,24);
ref = "five-ar";
},
{
pos = (26,-190);
ref = "five-ar";
}
);
width = 400;
},
{
associatedMasterId = m01;
layerId = "BCDC3E4F-0D63-47EE-8F54-58E619A4E890";
name = "7 Apr 26 at 20:10";
shapes = (
{
closed = 1;
nodes = (
(174,143,o),
(300,176,o),
(300,283,cs),
(300,363,o),
(249,399,o),
(187,399,cs),
(149,399,o),
(108,386,o),
(70,360,c),
(103,332,l),
(127,342,o),
(153,349,o),
(178,349,cs),
(217,349,o),
(250,332,o),
(250,283,cs),
(250,205,o),
(165,176,o),
(-1,189,c),
(126,229,l),
(126,113,l),
(34,154,l)
);
},
{
closed = 1;
nodes = (
(100,290,l),
(111,368,l),
(70,360,l),
(70,290,l)
);
},
{
closed = 1;
nodes = (
(126,112,l),
(24,151,l),
(190,164,o),
(275,136,o),
(275,58,cs),
(275,9,o),
(242,-8,o),
(203,-8,cs),
(178,-8,o),
(152,-1,o),
(128,9,c),
(95,-19,l),
(133,-45,o),
(174,-58,o),
(212,-58,cs),
(274,-58,o),
(325,-22,o),
(325,58,cs),
(325,165,o),
(199,198,o),
(59,187,c),
(126,228,l)
);
}
);
width = 400;
},
{
associatedMasterId = m01;
layerId = "E74C774E-7E0C-471C-B934-40FAD204E620";
name = "7 Apr 26 at 21:09";
shapes = (
{
closed = 1;
nodes = (
(91,102,l),
(-1,126,l),
(153,167,o),
(250,135,o),
(250,48,cs),
(250,-83,o),
(49,-55,o),
(3,-33,c),
(25,4,l),
(25,-113,l),
(-7,-78,l),
(94,-115,o),
(300,-126,o),
(300,48,cs),
(300,182,o),
(178,200,o),
(34,170,c),
(91,208,l)
);
}
);
visible = 1;
width = 325;
}
);
unicode = 51;
}
{
glyphname = four;
layers = (
{
layerId = m01;
shapes = (
{
closed = 1;
nodes = (
(267,358,l),
(235,400,l),
(25,90,l),
(66,62,l)
);
},
{
closed = 1;
nodes = (
(325,50,l),
(325,100,l),
(64,100,l),
(25,90,l),
(25,50,l)
);
},
{
closed = 1;
nodes = (
(275,-77,l),
(275,400,l),
(235,400,l),
(225,325,l),
(225,-77,l)
);
}
);
width = 350;
}
);
unicode = 52;
}
{
glyphname = five;
layers = (
{
layerId = m01;
shapes = (
{
closed = 1;
nodes = (
(-36,-54,l),
(33,-117,o),
(320,-142,o),
(320,65,cs),
(320,216,o),
(177,250,o),
(-61,167,c),
(51,272,l),
(51,137,l),
(-48,133,l),
(133,182,o),
(270,183,o),
(270,65,cs),
(270,-97,o),
(20,-49,o),
(-15,-26,c),
(25,19,l),
(25,-122,l)
);
},
{
closed = 1;
nodes = (
(101,186,l),
(101,355,l),
(91,400,l),
(51,400,l),
(51,166,l)
);
},
{
closed = 1;
nodes = (
(295,350,l),
(295,400,l),
(51,400,l),
(51,360,l),
(90,350,l)
);
},
{
closed = 1;
nodes = (
(295,300,l),
(295,370,l),
(254,378,l),
(265,300,l)
);
}
);
width = 345;
},
{
associatedMasterId = m01;
layerId = "8C122834-7C24-41DA-83E8-9FAF7620038B";
name = "7 Apr 26 at 21:03";
shapes = (
{
alignment = -1;
ref = three;
}
);
width = 345;
}
);
unicode = 53;
}
{
glyphname = six;
layers = (
{
layerId = m01;
shapes = (
{
closed = 1;
nodes = (
(281,0,o),
(327,76,o),
(327,151,cs),
(327,225,o),
(282,298,o),
(193,298,cs),
(142,298,o),
(89,273,o),
(56,219,c),
(75,170,l),
(93,221,o),
(141,244,o),
(186,244,cs),
(247,244,o),
(278,195,o),
(278,146,cs),
(278,98,o),
(248,50,o),
(188,50,cs),
(119,50,o),
(73,113,o),
(73,236,cs),
(73,406,o),
(138,468,o),
(311,454,c),
(278,405,l),
(278,500,l),
(98,520,o),
(23,416,o),
(23,236,cs),
(23,86,o),
(89,0,o),
(188,0,cs)
);
}
);
width = 350;
},
{
associatedMasterId = m01;
layerId = "BEF3853F-9247-483E-953C-FAB12197EA05";
name = "8 Apr 26 at 00:08";
shapes = (
{
alignment = -1;
pos = (50,0);
ref = zero;
}
);
width = 320;
},
{
associatedMasterId = m01;
layerId = "A4F2AC1E-D12B-4395-B985-C3CEAEC538FD";
name = "8 Apr 26 at 00:14";
shapes = (
{
closed = 1;
nodes = (
(279,0,o),
(333,64,o),
(333,142,cs),
(333,221,o),
(279,285,o),
(211,285,cs),
(143,285,o),
(89,221,o),
(89,142,cs),
(89,64,o),
(143,0,o),
(211,0,cs)
);
},
{
closed = 1;
nodes = (
(279,215,o),
(333,279,o),
(333,357,cs),
(333,436,o),
(279,500,o),
(211,500,cs),
(143,500,o),
(89,436,o),
(89,357,cs),
(89,279,o),
(143,215,o),
(211,215,cs)
);
}
);
width = 360;
}
);
unicode = 54;
}
{
glyphname = seven;
layers = (
{
layerId = m01;
shapes = (
{
closed = 1;
nodes = (
(280,350,l),
(325,360,l),
(325,400,l),
(25,400,l),
(25,350,l)
);
},
{
closed = 1;
nodes = (
(179,254,o),
(75,17,o),
(75,-156,c),
(29,-76,l),
(169,-76,l),
(125,-156,l),
(125,5,o),
(213,247,o),
(325,360,c),
(291,377,l)
);
},
{
closed = 1;
nodes = (
(55,300,l),
(66,378,l),
(25,370,l),
(25,300,l)
);
}
);
width = 350;
}
);
unicode = 55;
}
{
glyphname = eight;
layers = (
{
layerId = m01;
shapes = (
{
closed = 1;
nodes = (
(273,269,o),
(330,315,o),
(330,390,cs),
(330,445,o),
(286,500,o),
(200,500,cs),
(114,500,o),
(70,445,o),
(70,390,cs),
(70,315,o),
(128,277,o),
(195,238,cs),
(255,203,o),
(300,175,o),
(300,120,cs),
(300,82,o),
(257,50,o),
(200,50,cs),
(143,50,o),
(100,82,o),
(100,120,cs),
(100,184,o),
(160,233,o),
(219,258,c),
(200,289,l),
(136,262,o),
(50,216,o),
(50,120,cs),
(50,50,o),
(110,0,o),
(200,0,cs),
(290,0,o),
(350,50,o),
(350,120,cs),
(350,205,o),
(282,245,o),
(220,281,cs),
(167,312,o),
(120,339,o),
(120,390,cs),
(120,425,o),
(151,450,o),
(200,450,cs),
(249,450,o),
(280,425,o),
(280,390,cs),
(280,335,o),
(232,290,o),
(190,273,c),
(209,243,l)
);
}
);
width = 400;
},
{
associatedMasterId = m01;
layerId = "774AA92A-1E14-46DF-8CC9-15F45A0582C9";
name = "8 Apr 26 at 00:26";
shapes = (
{
closed = 1;
nodes = (
(341,0,o),
(375,145,o),
(375,250,cs),
(375,355,o),
(341,500,o),
(200,500,cs),
(59,500,o),
(25,355,o),
(25,250,cs),
(25,145,o),
(59,0,o),
(200,0,cs)
);
},
{
closed = 1;
nodes = (
(98,50,o),
(75,151,o),
(75,250,cs),
(75,349,o),
(98,450,o),
(200,450,cs),
(302,450,o),
(325,349,o),
(325,250,cs),
(325,151,o),
(302,50,o),
(200,50,cs)
);
}
);
width = 400;
},
{
associatedMasterId = m01;
layerId = "7516D285-DE35-498E-A268-B22C8DB54A4F";
name = "8 Apr 26 at 00:32";
shapes = (
{
closed = 1;
nodes = (
(280,0,o),
(330,50,o),
(330,100,cs),
(330,267,o),
(70,233,o),
(70,400,cs),
(70,450,o),
(120,500,o),
(200,500,cs),
(280,500,o),
(330,450,o),
(330,400,cs),
(330,233,o),
(70,267,o),
(70,100,cs),
(70,50,o),
(120,0,o),
(200,0,cs)
);
}
);
visible = 1;
width = 400;
}
);
unicode = 56;
}
{
glyphname = colon;
layers = (
{
layerId = m01;
shapes = (
{
closed = 1;
nodes = (
(108,0,o),
(125,17,o),
(125,38,cs),
(125,58,o),
(108,75,o),
(88,75,cs),
(67,75,o),
(50,58,o),
(50,38,cs),
(50,17,o),
(67,0,o),
(88,0,cs)
);
},
{
closed = 1;
nodes = (
(108,175,o),
(125,192,o),
(125,213,cs),
(125,233,o),
(108,250,o),
(88,250,cs),
(67,250,o),
(50,233,o),
(50,213,cs),
(50,192,o),
(67,175,o),
(88,175,cs)
);
}
);
width = 175;
},
{
layerId = m002;
shapes = (
{
closed = 1;
nodes = (
(108,0,o),
(125,17,o),
(125,38,cs),
(125,58,o),
(108,75,o),
(88,75,cs),
(67,75,o),
(50,58,o),
(50,38,cs),
(50,17,o),
(67,0,o),
(88,0,cs)
);
},
{
closed = 1;
nodes = (
(108,175,o),
(125,192,o),
(125,213,cs),
(125,233,o),
(108,250,o),
(88,250,cs),
(67,250,o),
(50,233,o),
(50,213,cs),
(50,192,o),
(67,175,o),
(88,175,cs)
);
}
);
width = 175;
}
);
metricLeft = "=period";
metricRight = "=period";
metricWidth = "=period";
unicode = 58;
}
{
glyphname = bracketleft;
layers = (
{
layerId = m01;
shapes = (
{
closed = 1;
nodes = (
(50,-150,l),
(50,550,l),
(200,550,l),
(200,500,l),
(100,500,l),
(100,-100,l),
(200,-100,l),
(200,-150,l)
);
}
);
width = 250;
},
{
layerId = m002;
shapes = (
{
closed = 1;
nodes = (
(50,-150,l),
(50,550,l),
(200,550,l),
(200,500,l),
(100,500,l),
(100,-100,l),
(200,-100,l),
(200,-150,l)
);
}
);
width = 250;
}
);
metricLeft = "=parenleft";
metricRight = "=parenleft";
unicode = 91;
}
{
glyphname = underscore;
layers = (
{
layerId = m01;
shapes = (
{
closed = 1;
nodes = (
(375,-150,l),
(375,-100,l),
(-10,-100,l),
(-10,-150,l)
);
}
);
width = 375;
},
{
layerId = m002;
shapes = (
{
closed = 1;
nodes = (
(375,-150,l),
(375,-100,l),
(-10,-100,l),
(-10,-150,l)
);
}
);
width = 375;
}
);
metricLeft = "=-10";
metricRight = "=0";
metricWidth = "=endash";
unicode = 95;
}
{
glyphname = braceleft;
layers = (
{
layerId = m01;
shapes = (
{
closed = 1;
nodes = (
(101,190,o),
(168,234,o),
(168,312,cs),
(168,355,o),
(150,398,o),
(150,450,cs),
(150,520,o),
(195,530,o),
(220,530,c),
(220,550,l),
(197,550,o),
(100,548,o),
(100,450,cs),
(100,398,o),
(120,347,o),
(120,300,cs),
(120,253,o),
(101,210,o),
(50,210,c),
(50,190,l)
);
},
{
closed = 1;
nodes = (
(220,-130,l),
(195,-130,o),
(150,-120,o),
(150,-50,cs),
(150,2,o),
(168,45,o),
(168,88,cs),
(168,166,o),
(101,210,o),
(50,210,c),
(50,190,l),
(101,190,o),
(120,147,o),
(120,100,cs),
(120,53,o),
(100,2,o),
(100,-50,cs),
(100,-148,o),
(197,-150,o),
(220,-150,c)
);
}
);
width = 270;
},
{
associatedMasterId = m01;
layerId = "836F5949-E087-42A8-8E00-BDC88C795C25";
name = "2 Jul 25 at 01:03";
shapes = (
{
closed = 1;
nodes = (
(230,-93,l),
(120,91,o),
(120,309,o),
(230,493,c),
(221,500,l),
(150,425,o),
(100,305,o),
(100,200,cs),
(100,95,o),
(150,-25,o),
(221,-100,c)
);
}
);
width = 400;
}
);
metricLeft = "=bracketleft";
metricRight = "=parenleft";
unicode = 123;
}
{
glyphname = bar;
layers = (
{
layerId = m01;
shapes = (
{
closed = 1;
nodes = (
(100,-150,l),
(100,550,l),
(50,550,l),
(50,-150,l)
);
}
);
width = 150;
},
{
layerId = m002;
shapes = (
{
closed = 1;
nodes = (
(100,-150,l),
(100,550,l),
(50,550,l),
(50,-150,l)
);
}
);
width = 150;
}
);
metricLeft = "=bracketleft";
metricRight = "=bracketright";
unicode = 124;
}
{
glyphname = "comma-ar";
layers = (
{
layerId = m01;
shapes = (
{
closed = 1;
nodes = (
(108,0,o),
(125,17,o),
(125,38,cs),
(125,68,o),
(86,92,o),
(56,59,c),
(81,35,l),
(79,63,o),
(90,103,o),
(126,137,c),
(115,150,l),
(78,120,o),
(47,75,o),
(50,38,cs),
(50,17,o),
(67,0,o),
(88,0,cs)
);
}
);
width = 175;
}
);
metricWidth = "=period";
unicode = 1548;
}
{
glyphname = "tahabove-ar";
layers = (
{
anchors = (
{
name = _top;
pos = (100,550);
},
{
name = topAlt;
pos = (100,801);
}
);
layerId = m01;
shapes = (
{
closed = 1;
nodes = (
(36,600,l),
(137,734,l),
(101,734,l),
(0,600,l)
);
},
{
closed = 1;
nodes = (
(200,600,l),
(172,629,l),
(24,629,l),
(24,600,l)
);
},
{
closed = 1;
nodes = (
(189,679,l),
(163,651,l),
(167,625,l),
(200,600,l)
);
},
{
closed = 1;
nodes = (
(173,650,l),
(189,679,l),
(61,679,l),
(61,650,l)
);
},
{
closed = 1;
nodes = (
(137,734,l),
(49,800,l),
(45,794,l),
(51,775,o),
(49,763,o),
(37,742,c),
(42,738,l),
(61,750,o),
(84,737,o),
(93,730,cs),
(110,718,l)
);
}
);
width = 200;
}
);
metricRight = "=0";
unicode = 1557;
}
{
glyphname = "question-ar";
layers = (
{
layerId = m01;
shapes = (
{
closed = 1;
nodes = (
(243,125,l),
(250,311,l),
(235,304,o),
(218,300,o),
(200,300,cs),
(143,300,o),
(100,343,o),
(100,400,cs),
(100,467,o),
(150,500,o),
(194,500,cs),
(228,500,o),
(259,479,o),
(260,443,c),
(266,443,l),
(278,475,o),
(289,489,o),
(316,498,c),
(317,506,l),
(279,536,o),
(237,550,o),
(198,550,cs),
(118,550,o),
(50,491,o),
(50,400,cs),
(50,302,o),
(130,234,o),
(234,253,c),
(200,278,l),
(207,125,l)
);
},
{
pos = (137,0);
ref = period;
}
);
width = 367;
},
{
layerId = m002;
shapes = (
{
closed = 1;
nodes = (
(243,125,l),
(250,311,l),
(235,304,o),
(218,300,o),
(200,300,cs),
(143,300,o),
(100,343,o),
(100,400,cs),
(100,467,o),
(150,500,o),
(194,500,cs),
(228,500,o),
(259,479,o),
(260,443,c),
(266,443,l),
(278,475,o),
(289,489,o),
(316,498,c),
(317,506,l),
(279,536,o),
(237,550,o),
(198,550,cs),
(118,550,o),
(50,491,o),
(50,400,cs),
(50,302,o),
(130,234,o),
(234,253,c),
(200,278,l),
(207,125,l)
);
},
{
pos = (137,0);
ref = period;
}
);
width = 367;
}
);
metricLeft = "=period";
metricRight = "=period";
unicode = 1567;
}
{
glyphname = "hamza-ar";
layers = (
{
anchors = (
{
name = bottom;
pos = (199,0);
},
{
name = top;
pos = (226,300);
}
);
layerId = m01;
shapes = (
{
closed = 1;
nodes = (
(352,0,l),
(352,8,l),
(319,30,o),
(307,42,o),
(299,90,c),
(293,90,l),
(279,63,o),
(252,50,o),
(227,50,cs),
(186,50,o),
(152,84,o),
(152,125,cs),
(152,166,o),
(186,200,o),
(227,200,cs),
(253,200,o),
(279,182,o),
(282,143,c),
(288,143,l),
(292,163,o),
(321,183,o),
(343,188,c),
(345,194,l),
(310,232,o),
(266,250,o),
(226,250,cs),
(159,250,o),
(102,201,o),
(102,125,cs),
(102,96,o),
(110,71,o),
(125,50,c),
(67,50,l),
(67,0,l)
);
},
{
closed = 1;
nodes = (
(125,0,l),
(125,50,l),
(100,50,o),
(73,63,o),
(59,90,c),
(53,90,l),
(45,42,o),
(33,30,o),
(0,8,c),
(0,0,l)
);
}
);
width = 362;
},
{
associatedMasterId = m01;
layerId = "E8B757E7-C486-4BA7-9D5E-F7D7EA597852";
name = "28 Mar 24 at 13:34";
shapes = (
{
closed = 1;
nodes = (
(387,50,o),
(421,84,o),
(421,125,cs),
(421,166,o),
(387,200,o),
(346,200,cs),
(305,200,o),
(271,166,o),
(271,125,cs),
(271,84,o),
(305,50,o),
(346,50,cs)
);
}
);
visible = 1;
width = 600;
}
);
metricLeft = "=0";
metricRight = "=10";
unicode = 1569;
}
{
glyphname = "alef-ar";
layers = (
{
anchors = (
{
name = bottom;
pos = (117,0);
},
{
name = top;
pos = (55,550);
}
);
layerId = m01;
shapes = (
{
closed = 1;
nodes = (
(200,0,l),
(200,8,l),
(173,16,o),
(155,32,o),
(150,80,c),
(142,80,l),
(136,59,o),
(121,50,o),
(100,50,c),
(100,550,l),
(92,550,l),
(70,517,o),
(48,505,o),
(0,500,c),
(0,492,l),
(41,476,o),
(50,422,o),
(50,400,cs),
(50,0,l)
);
}
);
width = 210;
}
);
metricLeft = "=0";
metricRight = "=10";
unicode = 1575;
}
{
glyphname = "dal-ar";
layers = (
{
anchors = (
{
name = bottom;
pos = (283,0);
},
{
name = top;
pos = (351,200);
}
);
backgroundImage = {
angle = 1;
imagePath = "images/31246001-fixed.jpg";
pos = (-15009,-10137);
scale = (209.3003,209.3003);
};
layerId = m01;
shapes = (
{
closed = 1;
nodes = (
(557,0,l),
(508,50,l),
(150,50,ls),
(128,50,o),
(74,59,o),
(58,100,c),
(50,100,l),
(45,52,o),
(33,30,o),
(0,8,c),
(0,0,l)
);
},
{
closed = 1;
nodes = (
(161,108,l),
(166,159,ls),
(170,181,o),
(184,233,o),
(228,244,c),
(228,252,l),
(182,264,o),
(162,277,o),
(144,313,c),
(135,314,l),
(110,100,l)
);
},
{
closed = 1;
nodes = (
(508,100,l),
(537,150,l),
(140,150,l),
(110,100,l)
);
},
{
closed = 1;
nodes = (
(537,150,l),
(492,100,l),
(499,50,l),
(557,0,l)
);
}
);
width = 600;
}
);
metricLeft = "=0";
metricRight = "=50@50";
unicode = 1583;
}
{
glyphname = "tah-ar";
layers = (
{
anchors = (
{
name = bottom;
pos = (287,0);
},
{
name = top;
pos = (406,200);
}
);
backgroundImage = {
angle = 1;
imagePath = "images/31246001-fixed.jpg";
locked = 1;
pos = (-13240,-10890);
scale = (209.3003,209.3003);
};
layerId = m01;
shapes = (
{
closed = 1;
nodes = (
(62,0,l),
(380,423,l),
(319,423,l),
(0,0,l)
);
},
{
closed = 1;
nodes = (
(482,0,l),
(482,50,l),
(52,50,l),
(52,0,l)
);
},
{
closed = 1;
nodes = (
(482,100,l),
(482,150,l),
(125,150,l),
(125,100,l)
);
},
{
closed = 1;
nodes = (
(530,0,l),
(510,150,l),
(458,150,l),
(478,0,l)
);
},
{
closed = 1;
nodes = (
(380,423,l),
(212,550,l),
(207,544,l),
(220,506,o),
(216,481,o),
(192,440,c),
(198,435,l),
(235,458,o),
(284,433,o),
(302,420,cs),
(333,396,l)
);
}
);
width = 540;
}
);
metricLeft = "=0";
metricRight = "=10";
unicode = 1591;
}
{
glyphname = "kashida-ar";
layers = (
{
layerId = m01;
shapes = (
{
closed = 1;
nodes = (
(50,0,l),
(50,50,l),
(0,50,l),
(0,0,l)
);
}
);
width = 50;
}
);
unicode = 1600;
}
{
glyphname = "kaf-ar";
layers = (
{
layerId = m01;
shapes = (
{
closed = 1;
nodes = (
(200,0,l),
(200,50,l),
(150,50,ls),
(128,50,o),
(74,59,o),
(58,100,c),
(50,100,l),
(45,52,o),
(33,30,o),
(0,8,c),
(0,0,l)
);
},
{
pos = (100,0);
ref = "kaf-ar.init";
}
);
width = 650;
}
);
metricLeft = "=0";
metricRight = "=kaf-ar.init";
unicode = 1603;
}
{
glyphname = "lam-ar";
layers = (
{
layerId = m01;
shapes = (
{
closed = 1;
nodes = (
(300,0,l),
(300,600,l),
(292,600,l),
(270,567,o),
(248,555,o),
(200,550,c),
(200,542,l),
(241,526,o),
(250,472,o),
(250,450,cs),
(250,50,l),
(100,50,ls),
(79,50,o),
(64,59,o),
(58,80,c),
(50,80,l),
(45,32,o),
(27,16,o),
(0,8,c),
(0,0,l)
);
}
);
width = 310;
}
);
metricLeft = "=0";
metricRight = "=10";
unicode = 1604;
}
{
glyphname = "waw-ar";
layers = (
{
anchors = (
{
name = bottom;
pos = (115,-125);
},
{
name = top;
pos = (157,200);
}
);
backgroundImage = {
angle = -1;
imagePath = "images/31246001-fixed.jpg";
locked = 1;
pos = (-20692,-7016);
scale = (209.3003,209.3003);
};
layerId = m01;
shapes = (
{
closed = 1;
nodes = (
(198,-125,o),
(265,-72,o),
(265,25,cs),
(265,108,o),
(216,175,o),
(157,175,cs),
(96,175,o),
(50,111,o),
(50,25,c),
(225,25,l),
(225,75,l),
(107,75,l),
(118,107,o),
(137,125,o),
(157,125,cs),
(183,125,o),
(215,84,o),
(215,25,cs),
(215,-41,o),
(174,-75,o),
(115,-75,cs),
(94,-75,o),
(39,-66,o),
(23,-25,c),
(15,-25,l),
(10,-73,o),
(-2,-95,o),
(-35,-117,c),
(-35,-125,l),
(115,-125,ls)
);
}
);
width = 275;
}
);
metricLeft = "=50@25";
metricRight = "=10";
unicode = 1608;
}
{
glyphname = "fathatan-ar";
layers = (
{
anchors = (
{
name = _top;
pos = (75,350);
},
{
name = _topAlt;
pos = (75,400);
}
);
layerId = m01;
shapes = (
{
closed = 1;
nodes = (
(140,539,l),
(133,558,l),
(10,511,l),
(15,497,l)
);
},
{
ref = "fatha-ar";
}
);
width = 150;
},
{
anchors = (
{
name = _top;
pos = (75,350);
},
{
name = _topAlt;
pos = (75,400);
}
);
layerId = m002;
shapes = (
{
closed = 1;
nodes = (
(140,539,l),
(133,558,l),
(10,511,l),
(15,497,l)
);
},
{
ref = "fatha-ar";
}
);
width = 150;
}
);
metricWidth = "=fatha-ar";
unicode = 1611;
}
{
glyphname = "kasratan-ar";
layers = (
{
anchors = (
{
name = _bottom;
pos = (75,-51);
},
{
name = _bottomAlt;
pos = (75,-100);
}
);
layerId = m01;
shapes = (
{
closed = 1;
nodes = (
(141,-218,l),
(134,-198,l),
(10,-240,l),
(15,-255,l)
);
},
{
ref = "kasra-ar";
}
);
width = 150;
}
);
unicode = 1613;
}
{
glyphname = "fatha-ar";
layers = (
{
anchors = (
{
name = _top;
pos = (75,350);
},
{
name = _top.mkmk;
pos = (75,400);
}
);
layerId = m01;
shapes = (
{
closed = 1;
nodes = (
(140,491,l),
(133,510,l),
(10,468,l),
(15,454,l)
);
}
);
width = 150;
}
);
unicode = 1614;
}
{
glyphname = "damma-ar";
layers = (
{
anchors = (
{
name = _top;
pos = (60,350);
},
{
name = _top.mkmk;
pos = (60,400);
}
);
layerId = m01;
shapes = (
{
closed = 1;
nodes = (
(57,460,o),
(100,491,o),
(100,529,cs),
(100,564,o),
(58,576,o),
(22,538,c),
(67,489,l),
(81,501,l),
(48,536,l),
(63,547,o),
(82,545,o),
(82,530,cs),
(82,500,o),
(38,473,o),
(0,464,c),
(3,449,l)
);
}
);
width = 100;
}
);
metricLeft = "=0";
metricRight = "=0";
unicode = 1615;
}
{
glyphname = "kasra-ar";
layers = (
{
anchors = (
{
name = _bottom;
pos = (75,-51);
},
{
name = _bottom.mkmk;
pos = (75,-100);
}
);
layerId = m01;
shapes = (
{
closed = 1;
nodes = (
(150,-171,l),
(146,-150,l),
(0,-185,l),
(3,-200,l)
);
}
);
width = 150;
}
);
unicode = 1616;
}
{
glyphname = "shadda-ar";
layers = (
{
anchors = (
{
name = _top;
pos = (75,350);
},
{
name = _top.mkmk;
pos = (75,400);
},
{
name = top.mkmk;
pos = (61,478);
}
);
layerId = m01;
shapes = (
{
closed = 1;
nodes = (
(128,470,l),
(18,470,l),
(13,505,l),
(-7,503,l),
(0,450,l),
(150,450,l),
(140,528,l),
(120,526,l)
);
},
{
closed = 1;
nodes = (
(64,460,l),
(84,459,l),
(76,517,l),
(57,515,l)
);
}
);
width = 150;
}
);
metricLeft = "=-7";
metricRight = "=0";
unicode = 1617;
}
{
glyphname = "sukun-ar";
layers = (
{
anchors = (
{
name = _top;
pos = (50,340);
},
{
name = _top.mkmk;
pos = (50,390);
}
);
layerId = m01;
shapes = (
{
closed = 1;
nodes = (
(80,450,o),
(105,475,o),
(105,506,cs),
(105,536,o),
(80,561,o),
(50,561,cs),
(19,561,o),
(-6,536,o),
(-6,506,cs),
(-6,475,o),
(19,450,o),
(50,450,cs)
);
},
{
closed = 1;
nodes = (
(29,468,o),
(12,485,o),
(12,506,cs),
(12,526,o),
(29,543,o),
(50,543,cs),
(70,543,o),
(87,526,o),
(87,506,cs),
(87,485,o),
(70,468,o),
(50,468,cs)
);
}
);
width = 100;
}
);
metricLeft = "=-6";
metricRight = "=-5";
unicode = 1618;
}
{
glyphname = "madda-ar";
layers = (
{
anchors = (
{
name = _top;
pos = (113,-50);
},
{
name = top.mkmk;
pos = (88,54);
}
);
layerId = m01;
shapes = (
{
closed = 1;
nodes = (
(175,0,l),
(175,29,l),
(77,29,ls),
(66,29,o),
(39,34,o),
(33,54,c),
(25,54,l),
(23,29,o),
(17,20,o),
(0,8,c),
(0,0,l)
);
}
);
width = 175;
}
);
metricLeft = "=0";
metricRight = "=0";
unicode = 1619;
}
{
glyphname = "zero-ar";
kernLeft = "zero-ar";
kernRight = "zero-ar";
layers = (
{
layerId = m01;
shapes = (
{
closed = 1;
nodes = (
(240,235,l),
(170,306,l),
(100,235,l),
(170,164,l)
);
}
);
width = 340;
},
{
layerId = m002;
shapes = (
{
closed = 1;
nodes = (
(240,235,l),
(170,306,l),
(100,235,l),
(170,164,l)
);
}
);
width = 340;
}
);
metricLeft = "=100";
metricRight = "=100";
unicode = (1632,1776);
}
{
glyphname = "one-ar";
kernLeft = "one-ar";
layers = (
{
layerId = m01;
shapes = (
{
closed = 1;
nodes = (
(200,10,l),
(181,156,o),
(147,306,o),
(95,450,c),
(50,430,l),
(99,290,o),
(132,143,o),
(151,0,c)
);
}
);
width = 250;
},
{
associatedMasterId = m01;
layerId = "F56B1598-2763-43B6-95B8-2020382C4744";
name = "4 Jul 25 at 07:11";
shapes = (
{
closed = 1;
nodes = (
(214,10,l),
(192,173,o),
(157,342,o),
(94,500,c),
(50,481,l),
(109,326,o),
(145,160,o),
(166,0,c)
);
}
);
width = 264;
},
{
layerId = m002;
shapes = (
{
closed = 1;
nodes = (
(200,10,l),
(181,156,o),
(147,306,o),
(95,450,c),
(50,430,l),
(99,290,o),
(132,143,o),
(151,0,c)
);
}
);
width = 250;
},
{
associatedMasterId = m002;
layerId = "B24F0156-305E-4151-AB62-D77136E6FBA5";
name = "4 Jul 25 at 07:11";
shapes = (
{
closed = 1;
nodes = (
(214,10,l),
(192,173,o),
(157,342,o),
(94,500,c),
(50,481,l),
(109,326,o),
(145,160,o),
(166,0,c)
);
}
);
width = 264;
}
);
metricLeft = "=50";
metricRight = "=50";
unicode = (1633,1777);
}
{
glyphname = "two-ar";
kernLeft = "one-ar";
kernRight = "two-ar";
layers = (
{
layerId = m01;
shapes = (
{
ref = "one-ar";
},
{
closed = 1;
nodes = (
(250,377,o),
(206,350,o),
(170,350,cs),
(147,350,o),
(127,360,o),
(119,378,c),
(79,348,l),
(102,318,o),
(136,300,o),
(174,300,cs),
(243,300,o),
(300,358,o),
(300,445,c),
(250,445,l)
);
}
);
width = 350;
},
{
associatedMasterId = m01;
layerId = "6DAE80FE-36D0-4DF6-966F-774615C20688";
name = "4 Jul 25 at 06:28";
shapes = (
{
closed = 1;
nodes = (
(215,10,l),
(193,173,o),
(157,342,o),
(94,500,c),
(50,481,l),
(109,326,o),
(145,160,o),
(166,0,c)
);
},
{
closed = 1;
nodes = (
(182,370,o),
(208,385,o),
(225,410,c),
(242,385,o),
(267,370,o),
(296,370,cs),
(353,370,o),
(390,428,o),
(390,495,c),
(340,495,l),
(340,451,o),
(320,420,o),
(295,420,cs),
(270,420,o),
(250,450,o),
(250,495,c),
(200,495,l),
(200,451,o),
(180,420,o),
(157,420,cs),
(134,420,o),
(121,434,o),
(111,456,c),
(68,435,l),
(84,397,o),
(114,370,o),
(153,370,cs)
);
}
);
width = 410;
},
{
layerId = m002;
shapes = (
{
ref = "one-ar";
},
{
closed = 1;
nodes = (
(250,377,o),
(206,350,o),
(170,350,cs),
(147,350,o),
(127,360,o),
(119,378,c),
(79,348,l),
(102,318,o),
(136,300,o),
(174,300,cs),
(243,300,o),
(300,358,o),
(300,445,c),
(250,445,l)
);
}
);
width = 350;
},
{
associatedMasterId = m002;
layerId = "1A43C9F1-BCA4-4A73-9137-F21CE628904D";
name = "4 Jul 25 at 06:28";
shapes = (
{
closed = 1;
nodes = (
(215,10,l),
(193,173,o),
(157,342,o),
(94,500,c),
(50,481,l),
(109,326,o),
(145,160,o),
(166,0,c)
);
},
{
closed = 1;
nodes = (
(182,370,o),
(208,385,o),
(225,410,c),
(242,385,o),
(267,370,o),
(296,370,cs),
(353,370,o),
(390,428,o),
(390,495,c),
(340,495,l),
(340,451,o),
(320,420,o),
(295,420,cs),
(270,420,o),
(250,450,o),
(250,495,c),
(200,495,l),
(200,451,o),
(180,420,o),
(157,420,cs),
(134,420,o),
(121,434,o),
(111,456,c),
(68,435,l),
(84,397,o),
(114,370,o),
(153,370,cs)
);
}
);
width = 410;
}
);
metricLeft = "=one-ar";
metricRight = "=50";
unicode = (1634,1778);
}
{
glyphname = "three-ar";
kernLeft = "one-ar";
kernRight = "two-ar";
layers = (
{
layerId = m01;
shapes = (
{
closed = 1;
nodes = (
(180,320,o),
(208,335,o),
(225,360,c),
(242,335,o),
(267,320,o),
(296,320,cs),
(353,320,o),
(390,378,o),
(390,445,c),
(340,445,l),
(340,401,o),
(320,370,o),
(295,370,cs),
(270,370,o),
(250,400,o),
(250,445,c),
(200,445,l),
(200,401,o),
(178,370,o),
(155,370,cs),
(132,370,o),
(119,384,o),
(110,406,c),
(66,385,l),
(82,347,o),
(112,320,o),
(151,320,cs)
);
},
{
ref = "one-ar";
}
);
width = 440;
},
{
layerId = m002;
shapes = (
{
closed = 1;
nodes = (
(180,320,o),
(208,335,o),
(225,360,c),
(242,335,o),
(267,320,o),
(296,320,cs),
(353,320,o),
(390,378,o),
(390,445,c),
(340,445,l),
(340,401,o),
(320,370,o),
(295,370,cs),
(270,370,o),
(250,400,o),
(250,445,c),
(200,445,l),
(200,401,o),
(178,370,o),
(155,370,cs),
(132,370,o),
(119,384,o),
(110,406,c),
(66,385,l),
(82,347,o),
(112,320,o),
(151,320,cs)
);
},
{
ref = "one-ar";
}
);
width = 440;
}
);
metricLeft = "=one-ar";
metricRight = "=two-ar";
unicode = (1635,1779);
}
{
glyphname = "five-ar";
kernLeft = "zero-ar";
kernRight = "zero-ar";
layers = (
{
layerId = m01;
shapes = (
{
closed = 1;
nodes = (
(255,125,o),
(300,170,o),
(300,250,cs),
(300,299,o),
(266,375,o),
(175,375,cs),
(84,375,o),
(50,299,o),
(50,250,cs),
(50,170,o),
(95,125,o),
(175,125,cs)
);
},
{
closed = 1;
nodes = (
(125,175,o),
(100,196,o),
(100,250,cs),
(100,281,o),
(120,325,o),
(175,325,cs),
(230,325,o),
(250,281,o),
(250,250,cs),
(250,196,o),
(225,175,o),
(175,175,cs)
);
}
);
width = 350;
},
{
associatedMasterId = m01;
layerId = "40B6DED3-6F27-4D80-9E7B-A7D6E941A601";
name = "4 Jul 25 at 07:57";
shapes = (
{
closed = 1;
nodes = (
(308,0,o),
(350,88,o),
(350,186,cs),
(350,310,o),
(284,450,o),
(200,450,cs),
(116,450,o),
(50,310,o),
(50,186,cs),
(50,88,o),
(92,0,o),
(200,0,cs)
);
},
{
closed = 1;
nodes = (
(127,50,o),
(100,111,o),
(100,182,cs),
(100,281,o),
(151,400,o),
(200,400,cs),
(249,400,o),
(300,281,o),
(300,182,cs),
(300,111,o),
(273,50,o),
(200,50,cs)
);
}
);
width = 400;
}
);
metricLeft = "=50";
metricRight = "=50";
unicode = 1637;
}
{
glyphname = "nine-ar";
kernLeft = "six-ar";
kernRight = "eight-ar";
layers = (
{
layerId = m01;
shapes = (
{
closed = 1;
nodes = (
(255,210,o),
(300,255,o),
(300,335,cs),
(299,391,o),
(266,460,o),
(175,460,cs),
(84,460,o),
(50,384,o),
(50,335,cs),
(50,255,o),
(95,210,o),
(175,210,cs)
);
},
{
closed = 1;
nodes = (
(363,21,l),
(328,123,o),
(308,231,o),
(300,335,c),
(248,367,l),
(254,249,o),
(275,119,o),
(316,0,c)
);
},
{
closed = 1;
nodes = (
(125,260,o),
(100,281,o),
(100,335,cs),
(100,366,o),
(120,410,o),
(175,410,cs),
(230,410,o),
(248,371,o),
(250,335,cs),
(250,281,o),
(225,260,o),
(175,260,cs)
);
}
);
width = 413;
}
);
metricLeft = "=five-ar";
metricRight = "=six-ar";
unicode = (1641,1785);
}
{
glyphname = "decimalseparator-ar";
layers = (
{
layerId = m01;
shapes = (
{
closed = 1;
nodes = (
(45,-124,o),
(105,-10,o),
(127,72,c),
(98,80,l),
(77,4,o),
(22,-98,o),
(-136,-120,c),
(-74,-55,l),
(-17,-176,l),
(-130,-151,l)
);
},
{
closed = 1;
nodes = (
(127,72,l),
(70,102,l),
(47,50,l),
(108,20,l)
);
}
);
width = 133;
}
);
unicode = 1643;
}
{
glyphname = "fourFarsi-ar";
kernLeft = "one-ar";
kernRight = "two-ar";
layers = (
{
layerId = m01;
shapes = (
{
closed = 1;
nodes = (
(345,304,l),
(263,278,o),
(137,281,o),
(85,330,c),
(81,272,l),
(157,229,o),
(277,230,o),
(360,256,c)
);
},
{
closed = 1;
nodes = (
(173,10,l),
(158,128,o),
(132,249,o),
(96,367,c),
(50,347,l),
(84,232,o),
(109,115,o),
(124,0,c)
);
},
{
closed = 1;
nodes = (
(345,304,l),
(316,294,o),
(270,296,o),
(270,338,cs),
(270,361,o),
(290,384,o),
(331,384,c),
(331,434,l),
(262,434,o),
(220,389,o),
(220,338,cs),
(220,271,o),
(278,241,o),
(337,251,c)
);
}
);
width = 410;
},
{
associatedMasterId = m01;
layerId = "D46523E0-64F9-4721-86FB-3C9F795D1851";
name = "4 Jul 25 at 06:33";
shapes = (
{
closed = 1;
nodes = (
(215,10,l),
(193,173,o),
(157,342,o),
(94,500,c),
(50,481,l),
(109,326,o),
(145,160,o),
(166,0,c)
);
},
{
closed = 1;
nodes = (
(284,350,o),
(350,408,o),
(350,495,c),
(300,495,l),
(300,430,o),
(250,400,o),
(200,400,cs),
(161,400,o),
(126,418,o),
(111,456,c),
(85,398,l),
(113,368,o),
(154,350,o),
(200,350,cs)
);
}
);
width = 370;
},
{
associatedMasterId = m01;
layerId = "B2CFEED8-3ACC-4C54-9AB4-CB82517D1CCA";
name = "4 Jul 25 at 07:02";
shapes = (
{
closed = 1;
nodes = (
(215,10,l),
(193,173,o),
(157,342,o),
(94,500,c),
(50,481,l),
(109,326,o),
(145,160,o),
(166,0,c)
);
},
{
closed = 1;
nodes = (
(300,405,l),
(235,378,o),
(143,383,o),
(114,448,c),
(81,397,l),
(135,332,o),
(247,329,o),
(320,359,c)
);
},
{
closed = 1;
nodes = (
(300,405,l),
(279,398,o),
(243,399,o),
(243,429,cs),
(243,445,o),
(258,462,o),
(289,460,c),
(289,510,l),
(233,511,o),
(196,481,o),
(196,432,cs),
(196,397,o),
(214,370,o),
(243,358,c)
);
}
);
width = 340;
},
{
layerId = m002;
shapes = (
{
closed = 1;
nodes = (
(345,304,l),
(263,278,o),
(137,281,o),
(85,330,c),
(81,272,l),
(157,229,o),
(277,230,o),
(360,256,c)
);
},
{
closed = 1;
nodes = (
(173,10,l),
(158,128,o),
(132,249,o),
(96,367,c),
(50,347,l),
(84,232,o),
(109,115,o),
(124,0,c)
);
},
{
closed = 1;
nodes = (
(345,304,l),
(316,294,o),
(270,296,o),
(270,338,cs),
(270,361,o),
(290,384,o),
(331,384,c),
(331,434,l),
(262,434,o),
(220,389,o),
(220,338,cs),
(220,271,o),
(278,241,o),
(337,251,c)
);
}
);
width = 410;
},
{
associatedMasterId = m002;
layerId = "904A0822-5DC2-4A4F-8DA0-F46EFB769D9B";
name = "4 Jul 25 at 06:33";
shapes = (
{
closed = 1;
nodes = (
(215,10,l),
(193,173,o),
(157,342,o),
(94,500,c),
(50,481,l),
(109,326,o),
(145,160,o),
(166,0,c)
);
},
{
closed = 1;
nodes = (
(284,350,o),
(350,408,o),
(350,495,c),
(300,495,l),
(300,430,o),
(250,400,o),
(200,400,cs),
(161,400,o),
(126,418,o),
(111,456,c),
(85,398,l),
(113,368,o),
(154,350,o),
(200,350,cs)
);
}
);
width = 370;
},
{
associatedMasterId = m002;
layerId = "F146125C-9AC9-4CAA-B2EA-EC63AF660EE9";
name = "4 Jul 25 at 07:02";
shapes = (
{
closed = 1;
nodes = (
(215,10,l),
(193,173,o),
(157,342,o),
(94,500,c),
(50,481,l),
(109,326,o),
(145,160,o),
(166,0,c)
);
},
{
closed = 1;
nodes = (
(300,405,l),
(235,378,o),
(143,383,o),
(114,448,c),
(81,397,l),
(135,332,o),
(247,329,o),
(320,359,c)
);
},
{
closed = 1;
nodes = (
(300,405,l),
(279,398,o),
(243,399,o),
(243,429,cs),
(243,445,o),
(258,462,o),
(289,460,c),
(289,510,l),
(233,511,o),
(196,481,o),
(196,432,cs),
(196,397,o),
(214,370,o),
(243,358,c)
);
}
);
width = 340;
}
);
metricLeft = "=three-ar";
metricRight = "=three-ar";
sortName = ar3139;
sortNameKeep = ar3168;
unicode = 1780;
}
{
glyphname = zerowidthnonjoiner;
layers = (
{
layerId = m01;
shapes = (
{
closed = 1;
nodes = (
(15,0,l),
(15,542,l),
(-15,542,l),
(-15,0,l)
);
}
);
width = 0;
}
);
unicode = 8204;
}
{
glyphname = zerowidthjoiner;
layers = (
{
layerId = m01;
shapes = (
{
closed = 1;
nodes = (
(0,521,l),
(47,474,l),
(68,495,l),
(21,542,l),
(68,589,l),
(47,610,l),
(0,562,l),
(-47,610,l),
(-68,589,l),
(-21,542,l),
(-68,495,l),
(-47,474,l)
);
},
{
closed = 1;
nodes = (
(15,0,l),
(15,488,l),
(-15,488,l),
(-15,0,l)
);
}
);
width = 0;
},
{
layerId = m002;
shapes = (
{
closed = 1;
nodes = (
(0,521,l),
(47,474,l),
(68,495,l),
(21,542,l),
(68,589,l),
(47,610,l),
(0,562,l),
(-47,610,l),
(-68,589,l),
(-21,542,l),
(-68,495,l),
(-47,474,l)
);
},
{
closed = 1;
nodes = (
(15,0,l),
(15,488,l),
(-15,488,l),
(-15,0,l)
);
}
);
width = 0;
}
);
unicode = 8205;
}
{
glyphname = endash;
layers = (
{
layerId = m01;
shapes = (
{
closed = 1;
nodes = (
(350,200,l),
(350,250,l),
(25,250,l),
(25,200,l)
);
}
);
width = 375;
}
);
metricLeft = "=25";
metricRight = "=|";
metricWidth = "=emdash/2";
unicode = 8211;
}
{
glyphname = emdash;
layers = (
{
layerId = m01;
shapes = (
{
closed = 1;
nodes = (
(750,200,l),
(750,250,l),
(0,250,l),
(0,200,l)
);
}
);
width = 750;
}
);
metricLeft = "=0";
metricRight = "=|";
metricWidth = "=750";
unicode = 8212;
}
{
glyphname = "parenleft-ar";
layers = (
{
layerId = m01;
shapes = (
{
closed = 1;
nodes = (
(199,251,l),
(160,303,l),
(173,309,o),
(187,311,o),
(206,311,c),
(228,408,o),
(276,492,o),
(335,548,c),
(332,551,l),
(291,487,o),
(254,404,o),
(238,309,c),
(247,308,o),
(255,306,o),
(262,303,c),
(223,251,l),
(237,240,l),
(289,310,l),
(278,318,o),
(266,323,o),
(251,326,c),
(257,314,l),
(272,397,o),
(303,470,o),
(339,530,cs),
(346,540,o),
(345,548,o),
(338,554,cs),
(331,560,o),
(322,559,o),
(313,551,cs),
(258,494,o),
(212,413,o),
(190,320,c),
(203,329,l),
(173,328,o),
(151,322,o),
(133,310,c),
(185,240,l)
);
},
{
closed = 1;
nodes = (
(345,-148,o),
(346,-140,o),
(340,-130,cs),
(304,-71,o),
(273,3,o),
(257,86,c),
(250,73,l),
(265,77,o),
(278,82,o),
(289,89,c),
(237,159,l),
(223,148,l),
(262,96,l),
(255,93,o),
(247,91,o),
(239,90,c),
(255,-4,o),
(291,-86,o),
(331,-150,c),
(334,-147,l),
(276,-91,o),
(228,-8,o),
(207,88,c),
(187,88,o),
(172,91,o),
(160,96,c),
(197,146,l),
(184,158,l),
(133,89,l),
(151,77,o),
(172,71,o),
(201,70,c),
(190,82,l),
(211,-12,o),
(257,-93,o),
(313,-151,cs),
(322,-159,o),
(331,-160,o),
(338,-154,cs)
);
},
{
closed = 1;
nodes = (
(171,175,l),
(160,188,l),
(107,149,l),
(104,159,o),
(103,169,o),
(101,183,c),
(88,186,o),
(81,191,o),
(73,200,c),
(81,210,o),
(88,214,o),
(101,217,c),
(103,231,o),
(104,241,o),
(107,251,c),
(159,212,l),
(171,225,l),
(100,278,l),
(91,265,o),
(87,247,o),
(85,231,c),
(71,225,o),
(60,215,o),
(50,200,c),
(60,185,o),
(71,175,o),
(85,169,c),
(87,153,o),
(91,135,o),
(100,122,c)
);
},
{
closed = 1;
nodes = (
(206,119,o),
(215,119,o),
(221,128,cs),
(236,149,o),
(262,175,o),
(283,189,cs),
(292,194,o),
(293,205,o),
(284,210,cs),
(266,222,o),
(247,234,o),
(221,272,cs),
(215,281,o),
(206,281,o),
(200,272,cs),
(174,237,o),
(173,232,o),
(140,210,cs),
(130,204,o),
(130,195,o),
(139,189,cs),
(179,158,o),
(172,168,o),
(200,128,cs)
);
},
{
closed = 1;
nodes = (
(189,160,o),
(171,178,o),
(171,200,cs),
(171,222,o),
(189,240,o),
(211,240,cs),
(233,240,o),
(251,222,o),
(251,200,cs),
(251,178,o),
(233,160,o),
(211,160,cs)
);
},
{
closed = 1;
nodes = (
(331,135,o),
(335,153,o),
(337,169,c),
(351,175,o),
(362,185,o),
(372,200,c),
(362,215,o),
(351,225,o),
(337,231,c),
(335,247,o),
(331,265,o),
(322,278,c),
(253,226,l),
(260,210,l),
(315,251,l),
(318,241,o),
(319,231,o),
(321,217,c),
(334,214,o),
(341,209,o),
(349,200,c),
(341,190,o),
(334,186,o),
(321,183,c),
(319,169,o),
(318,159,o),
(315,149,c),
(262,189,l),
(254,172,l),
(322,122,l)
);
}
);
width = 422;
},
{
associatedMasterId = m01;
layerId = "1ABCF345-F06E-4ECD-B692-EDB8EB3557D5";
name = "5 Jul 25 at 09:11";
shapes = (
{
closed = 1;
nodes = (
(107,244,l),
(152,306,ls),
(155,311,o),
(154,315,o),
(147,318,cs),
(122,326,l),
(140,396,o),
(170,461,o),
(212,523,cs),
(219,535,o),
(220,543,o),
(212,550,cs),
(205,557,o),
(196,555,o),
(186,546,cs),
(124,482,o),
(82,410,o),
(59,331,c),
(40,329,o),
(23,325,o),
(4,317,cs),
(-1,315,o),
(-3,311,o),
(1,306,cs),
(45,245,l),
(55,256,l),
(18,307,l),
(36,312,o),
(53,316,o),
(71,317,c),
(72,323,l),
(94,401,o),
(136,471,o),
(197,535,cs),
(201,539,o),
(204,537,o),
(200,531,cs),
(153,462,o),
(121,390,o),
(104,314,c),
(114,312,o),
(124,310,o),
(134,307,c),
(96,255,l)
);
},
{
closed = 1;
nodes = (
(61,164,o),
(50,169,o),
(42,180,cs),
(37,187,o),
(34,195,o),
(34,204,cs),
(34,217,o),
(40,228,o),
(51,236,cs),
(59,241,o),
(66,244,o),
(75,244,cs),
(88,244,o),
(99,238,o),
(107,227,cs),
(112,220,o),
(115,212,o),
(115,204,cs),
(115,190,o),
(109,179,o),
(98,171,cs),
(91,166,o),
(83,164,o),
(75,164,cs)
);
},
{
closed = 1;
nodes = (
(22,184,l),
(-28,146,l),
(-33,158,o),
(-34,170,o),
(-36,182,c),
(-52,189,o),
(-57,191,o),
(-68,204,c),
(-58,215,o),
(-50,219,o),
(-36,226,c),
(-34,238,o),
(-33,250,o),
(-28,261,c),
(22,224,l),
(34,234,l),
(-27,279,ls),
(-32,283,o),
(-36,282,o),
(-39,276,cs),
(-44,263,o),
(-48,249,o),
(-50,236,c),
(-63,229,o),
(-74,220,o),
(-84,208,c),
(-85,205,o),
(-85,202,o),
(-84,199,c),
(-74,187,o),
(-63,178,o),
(-50,172,c),
(-47,158,o),
(-44,145,o),
(-39,131,c),
(-36,126,o),
(-32,124,o),
(-27,128,cs),
(34,173,l)
);
},
{
closed = 1;
nodes = (
(96,152,l),
(134,100,l),
(124,97,o),
(114,95,o),
(104,93,c),
(121,18,o),
(153,-55,o),
(200,-124,cs),
(204,-130,o),
(201,-132,o),
(197,-127,cs),
(136,-64,o),
(94,6,o),
(72,84,c),
(71,91,l),
(53,91,o),
(36,95,o),
(18,100,c),
(55,151,l),
(45,162,l),
(1,102,ls),
(-3,97,o),
(-1,92,o),
(4,90,cs),
(23,83,o),
(40,78,o),
(58,77,c),
(81,-3,o),
(123,-74,o),
(186,-139,cs),
(196,-149,o),
(204,-151,o),
(212,-144,cs),
(219,-137,o),
(219,-128,o),
(212,-117,cs),
(171,-59,o),
(140,8,o),
(122,81,c),
(147,89,ls),
(154,92,o),
(155,97,o),
(152,102,cs),
(107,163,l)
);
},
{
closed = 1;
nodes = (
(127,224,l),
(177,261,l),
(182,250,o),
(184,238,o),
(186,226,c),
(199,219,o),
(207,215,o),
(217,204,c),
(206,191,o),
(202,188,o),
(186,182,c),
(184,170,o),
(182,158,o),
(177,146,c),
(127,183,l),
(115,173,l),
(177,128,ls),
(180,126,o),
(183,126,o),
(185,127,c),
(190,134,o),
(195,148,o),
(199,172,c),
(212,178,o),
(223,187,o),
(233,199,c),
(234,202,o),
(234,205,o),
(233,208,c),
(223,220,o),
(212,229,o),
(199,236,c),
(197,249,o),
(193,263,o),
(188,276,cs),
(185,282,o),
(182,283,o),
(177,279,cs),
(115,234,l)
);
},
{
closed = 1;
nodes = (
(111,238,o),
(85,276,cs),
(82,281,o),
(78,283,o),
(75,283,cs),
(71,283,o),
(67,281,o),
(64,276,cs),
(38,241,o),
(37,236,o),
(4,214,cs),
(-1,211,o),
(-4,207,o),
(-4,204,cs),
(-4,200,o),
(-2,196,o),
(3,193,cs),
(43,162,o),
(36,171,o),
(64,131,cs),
(67,126,o),
(71,124,o),
(75,124,cs),
(78,124,o),
(82,126,o),
(85,131,cs),
(100,152,o),
(125,179,o),
(146,193,cs),
(151,196,o),
(153,200,o),
(153,204,cs),
(153,207,o),
(152,211,o),
(147,214,cs),
(129,226,o)
);
}
);
width = 250;
}
);
metricLeft = "=parenleft";
metricRight = "=parenleft";
unicode = 64830;
}
{
glyphname = _ain1;
layers = (
{
anchors = (
{
name = top;
pos = (150,250);
}
);
layerId = m01;
shapes = (
{
closed = 1;
nodes = (
(175,25,l),
(175,50,ls),
(175,84,o),
(190,130,o),
(218,150,cs),
(242,167,o),
(271,170,o),
(295,146,c),
(300,150,l),
(297,182,o),
(295,197,o),
(299,222,c),
(294,229,l),
(181,229,o),
(135,123,o),
(135,50,cs),
(135,25,l)
);
},
{
closed = 1;
nodes = (
(165,25,l),
(165,50,ls),
(165,123,o),
(119,229,o),
(6,229,c),
(1,222,l),
(5,197,o),
(3,182,o),
(0,150,c),
(5,146,l),
(29,170,o),
(58,167,o),
(82,150,cs),
(110,130,o),
(125,84,o),
(125,50,cs),
(125,25,l)
);
}
);
width = 350;
}
);
}
{
export = 0;
glyphname = _ain2;
layers = (
{
anchors = (
{
name = top;
pos = (150,250);
}
);
layerId = m01;
shapes = (
{
closed = 1;
nodes = (
(175,50,l),
(175,94.994,o),
(196,140,o),
(232,162,c),
(239,152,o),
(250,146,o),
(263,146,cs),
(283,146,o),
(300,163,o),
(300,184,cs),
(300,204,o),
(283,221,o),
(263,221,cs),
(192,221,o),
(135,134,o),
(135,50,c)
);
},
{
closed = 1;
nodes = (
(165,50,l),
(165,134,o),
(108,221,o),
(37,221,cs),
(17,221,o),
(0,204,o),
(0,184,cs),
(0,163,o),
(17,146,o),
(37,146,cs),
(50,146,o),
(61,152,o),
(68,162,c),
(104,140,o),
(125,95,o),
(125,50,c)
);
}
);
width = 350;
}
);
}
{
glyphname = _beh.init;
layers = (
{
layerId = m01;
shapes = (
{
closed = 1;
nodes = (
(119,0,l),
(91,205,l),
(83,204,l),
(66,169,o),
(45,154,o),
(-1,142,c),
(0,133,l),
(43,123,o),
(59,72,o),
(62,50,c),
(69,0,l)
);
},
{
closed = 1;
nodes = (
(11,0,o),
(61,0,o),
(112,0,c),
(112,50,l),
(61,50,o),
(11,50,o),
(-40,50,c),
(-10,95,l),
(-10,-45,l),
(-40,0,l)
);
}
);
width = 119;
},
{
background = {
shapes = (
{
closed = 1;
nodes = (
(504,-1,o),
(833,328,o),
(833,734,cs),
(833,1140,o),
(504,1469,o),
(98,1469,cs),
(-308,1469,o),
(-637,1140,o),
(-637,734,cs),
(-637,328,o),
(-308,-1,o),
(98,-1,cs)
);
},
{
closed = 1;
nodes = (
(112,708,o),
(124,720,o),
(124,734,cs),
(124,748,o),
(112,760,o),
(98,760,cs),
(84,760,o),
(72,748,o),
(72,734,cs),
(72,720,o),
(84,708,o),
(98,708,cs)
);
},
{
closed = 1;
nodes = (
(476,49,o),
(783,356,o),
(783,734,cs),
(783,1112,o),
(476,1419,o),
(98,1419,cs),
(-280,1419,o),
(-587,1112,o),
(-587,734,cs),
(-587,356,o),
(-280,49,o),
(98,49,cs)
);
}
);
};
layerId = m002;
shapes = (
{
closed = 1;
nodes = (
(113,-1,l),
(92,206,l),
(84,205,l),
(66,171,o),
(44,156,o),
(-2,146,c),
(-1,137,l),
(41,126,o),
(56,74,o),
(58,52,cs),
(63,2,l)
);
},
{
closed = 1;
nodes = (
(-36,12,o),
(22,-2,o),
(113,-1,c),
(98,48,l),
(24,48,o),
(-58,65,o),
(-70,70,c),
(-30,112,l),
(-58,-28,l),
(-86,21,l)
);
}
);
width = 70;
}
);
metricRight = "=-50";
}
{
export = 0;
glyphname = _sad;
layers = (
{
layerId = m01;
shapes = (
{
closed = 1;
nodes = (
(407,0,l),
(358,50,l),
(0,50,l),
(0,0,l)
);
},
{
closed = 1;
nodes = (
(45,30,l),
(126,138,l),
(73,150,l),
(-17,30,l)
);
},
{
closed = 1;
nodes = (
(358,100,l),
(387,150,l),
(73,150,l),
(73,100,l)
);
},
{
closed = 1;
nodes = (
(387,150,l),
(342,100,l),
(349,50,l),
(407,0,l)
);
}
);
width = 450;
}
);
metricRight = "=50@50";
}
{
glyphname = _tail;
layers = (
{
layerId = m01;
shapes = (
{
closed = 1;
nodes = (
(500,0,l),
(450,50,l),
(150,50,ls),
(128,50,o),
(74,59,o),
(58,100,c),
(50,100,l),
(45,52,o),
(33,30,o),
(0,8,c),
(0,0,l)
);
}
);
width = 750;
},
{
associatedMasterId = m01;
attr = {
coordinates = (
0,
0
);
};
layerId = "9CF77B2E-6590-4DBD-9ADA-06E49F0C6464";
name = "5 Oct 24 at 19:49";
shapes = (
{
closed = 1;
nodes = (
(300,0,l),
(250,50,l),
(150,50,ls),
(128,50,o),
(74,59,o),
(58,100,c),
(50,100,l),
(45,52,o),
(33,30,o),
(0,8,c),
(0,0,l)
);
}
);
width = 750;
},
{
associatedMasterId = m01;
attr = {
coordinates = (
200,
0
);
};
layerId = "56177234-7C27-4ABA-B4C7-F30DDC278EC0";
name = "5 Oct 24 at 19:57";
shapes = (
{
closed = 1;
nodes = (
(4650,0,l),
(4600,50,l),
(150,50,ls),
(128,50,o),
(74,59,o),
(58,100,c),
(50,100,l),
(45,52,o),
(33,30,o),
(0,8,c),
(0,0,l)
);
}
);
width = 4700;
},
{
layerId = m002;
shapes = (
{
closed = 1;
nodes = (
(500,0,l),
(450,50,l),
(150,50,ls),
(128,50,o),
(74,59,o),
(58,100,c),
(50,100,l),
(45,52,o),
(33,30,o),
(0,8,c),
(0,0,l)
);
}
);
width = 750;
},
{
associatedMasterId = m002;
attr = {
coordinates = (
0,
-50
);
};
layerId = "60BDBDB1-6CD4-44C8-B398-9F2FC0E27CD6";
name = "5 Oct 24 at 19:49";
shapes = (
{
closed = 1;
nodes = (
(300,0,l),
(250,50,l),
(150,50,ls),
(128,50,o),
(74,59,o),
(58,100,c),
(50,100,l),
(45,52,o),
(33,30,o),
(0,8,c),
(0,0,l)
);
}
);
width = 750;
},
{
associatedMasterId = m002;
attr = {
coordinates = (
200,
-50
);
};
layerId = "00595018-F14C-4D12-A065-F20C4AD36BB2";
name = "5 Oct 24 at 19:57";
shapes = (
{
closed = 1;
nodes = (
(4650,0,l),
(4600,50,l),
(150,50,ls),
(128,50,o),
(74,59,o),
(58,100,c),
(50,100,l),
(45,52,o),
(33,30,o),
(0,8,c),
(0,0,l)
);
}
);
width = 4700;
}
);
}
{
glyphname = "ain-ar.isol";
layers = (
{
layerId = m01;
shapes = (
{
closed = 1;
nodes = (
(183,-100,o),
(225,-94,o),
(275,-86,c),
(275,-50,l),
(79,-50,o),
(50,-49,o),
(50,-25,cs),
(50,0,o),
(77,0,o),
(150,0,cs),
(350,0,l),
(350,50,l),
(150,50,ls),
(57,50,o),
(0,33,o),
(0,-25,cs),
(0,-81,o),
(34,-95,o),
(120,-98,cs)
);
},
{
pos = (150,0);
ref = "ain-ar.init";
}
);
width = 500;
},
{
layerId = m002;
shapes = (
{
closed = 1;
nodes = (
(183,-100,o),
(225,-94,o),
(275,-86,c),
(275,-50,l),
(79,-50,o),
(50,-49,o),
(50,-25,cs),
(50,0,o),
(77,0,o),
(150,0,cs),
(350,0,l),
(350,50,l),
(150,50,ls),
(57,50,o),
(0,33,o),
(0,-25,cs),
(0,-81,o),
(34,-95,o),
(120,-98,cs)
);
},
{
pos = (150,0);
ref = "ain-ar.init";
}
);
width = 500;
}
);
metricLeft = "=0";
metricRight = "=50";
}
{
glyphname = "alef-ar.fina";
kernRight = alef;
layers = (
{
anchors = (
{
name = bottom;
pos = (40,0);
},
{
name = top;
pos = (25,550);
},
{
name = topAlt;
pos = (25,550);
}
);
layerId = m01;
shapes = (
{
closed = 1;
nodes = (
(13,0,o),
(57,0,o),
(100,0,c),
(100,50,l),
(73,50,o),
(48,50,o),
(18,50,c),
(50,5,l),
(50,550,l),
(42,550,l),
(20,517,o),
(-2,505,o),
(-50,500,c),
(-50,492,l),
(-9,476,o),
(0,422,o),
(0,400,cs),
(0,-45,l),
(-29,0,l)
);
}
);
width = 100;
},
{
anchors = (
{
name = bottom;
pos = (6,0);
},
{
name = top;
pos = (51,550);
},
{
name = topAlt;
pos = (-9,550);
}
);
background = {
shapes = (
{
closed = 1;
nodes = (
(408,0,o),
(737,329,o),
(737,735,cs),
(737,1141,o),
(408,1470,o),
(2,1470,cs),
(-404,1470,o),
(-733,1141,o),
(-733,735,cs),
(-733,329,o),
(-404,0,o),
(2,0,cs)
);
},
{
closed = 1;
nodes = (
(16,710,o),
(28,722,o),
(28,736,cs),
(28,750,o),
(16,762,o),
(2,762,cs),
(-12,762,o),
(-24,750,o),
(-24,736,cs),
(-24,722,o),
(-12,710,o),
(2,710,cs)
);
},
{
closed = 1;
nodes = (
(380,50,o),
(687,357,o),
(687,735,cs),
(687,1113,o),
(380,1420,o),
(2,1420,cs),
(-376,1420,o),
(-683,1113,o),
(-683,735,cs),
(-683,357,o),
(-376,50,o),
(2,50,cs)
);
}
);
};
layerId = m002;
shapes = (
{
closed = 1;
nodes = (
(-16,-1,o),
(17,-1,o),
(66,3,c),
(66,53,l),
(51,51,o),
(31,49,o),
(2,50,c),
(22,26,l),
(53,539,l),
(45,539,l),
(23,506,o),
(-2,494,o),
(-50,489,c),
(-50,481,l),
(-9,465,o),
(-8,411,o),
(-9,389,cs),
(-34,-56,l),
(-65,3,l)
);
}
);
width = 66;
}
);
metricLeft = "=alef-ar.isol";
metricRight = "=0";
}
{
glyphname = "alefMaksura-ar.isol.alt";
layers = (
{
anchors = (
{
name = bottom;
pos = (290,0);
},
{
name = top;
pos = (70,168);
},
{
name = top.mkmk;
pos = (180,400);
}
);
backgroundImage = {
imagePath = "images/31246001-fixed.jpg";
locked = 1;
pos = (-14383,-7326);
scale = (209.3003,209.3003);
};
layerId = m01;
shapes = (
{
closed = 1;
nodes = (
(600,0,l),
(600,8,l),
(567,30,o),
(555,52,o),
(550,100,c),
(542,100,l),
(526,59,o),
(472,50,o),
(450,50,cs),
(58,50,l),
(58,0,l)
);
},
{
closed = 1;
nodes = (
(58,0,l),
(124,125,l),
(91,175,l),
(0,0,l)
);
},
{
closed = 1;
nodes = (
(351,125,l),
(291,175,l),
(91,175,l),
(98,125,l)
);
},
{
closed = 1;
nodes = (
(191,375,l),
(184,372,l),
(184,331,o),
(171,309,o),
(135,279,c),
(139,272,l),
(181,281,o),
(219,242,o),
(231,223,cs),
(283,141,l),
(351,125,l)
);
}
);
width = 650;
}
);
}
{
glyphname = "beh-ar.isol";
layers = (
{
anchors = (
{
name = bottom;
pos = (275,0);
},
{
name = top;
pos = (275,230);
}
);
layerId = m01;
shapes = (
{
closed = 1;
nodes = (
(169,0,o),
(338,0,o),
(507,0,c),
(479,205,l),
(471,204,l),
(454,169,o),
(433,154,o),
(387,142,c),
(388,133,l),
(431,123,o),
(447,72,o),
(450,50,c),
(350,50,o),
(250,50,o),
(150,50,cs),
(128,50,o),
(74,59,o),
(58,100,c),
(50,100,l),
(45,52,o),
(33,30,o),
(0,8,c),
(0,0,l)
);
}
);
width = 550;
},
{
anchors = (
{
name = bottom;
pos = (175,0);
},
{
name = top;
pos = (150,230);
}
);
associatedMasterId = m01;
attr = {
coordinates = (
0,
0,
0
);
};
layerId = "B8603B23-F16D-422B-BD28-F712345C3AA2";
name = "8 Dec 24 at 00:59";
shapes = (
{
closed = 1;
nodes = (
(102,0,o),
(205,0,o),
(307,0,c),
(279,205,l),
(271,204,l),
(254,169,o),
(233,154,o),
(187,142,c),
(188,133,l),
(231,123,o),
(247,72,o),
(250,50,c),
(217,50,o),
(183,50,o),
(150,50,cs),
(128,50,o),
(74,59,o),
(58,100,c),
(50,100,l),
(45,52,o),
(33,30,o),
(0,8,c),
(0,0,l)
);
}
);
width = 350;
},
{
anchors = (
{
name = bottom;
pos = (2350,0);
},
{
name = top;
pos = (2350,230);
}
);
associatedMasterId = m01;
attr = {
coordinates = (
200,
0,
0
);
};
layerId = "DA78D4AF-C29B-479A-BC1C-3D1F68068BE7";
name = "8 Dec 24 at 00:59";
shapes = (
{
closed = 1;
nodes = (
(1552,0,o),
(3105,0,o),
(4657,0,c),
(4629,205,l),
(4621,204,l),
(4604,169,o),
(4583,154,o),
(4537,142,c),
(4538,133,l),
(4581,123,o),
(4597,72,o),
(4600,50,c),
(3117,50,o),
(1633,50,o),
(150,50,c),
(128,50,o),
(74,59,o),
(58,100,c),
(50,100,l),
(45,52,o),
(33,30,o),
(0,8,c),
(0,0,l)
);
}
);
width = 4700;
},
{
anchors = (
{
name = bottom;
pos = (274,0);
},
{
name = top;
pos = (275,230);
}
);
background = {
shapes = (
{
closed = 1;
nodes = (
(681,0,o),
(1010,329,o),
(1010,735,cs),
(1010,1141,o),
(681,1470,o),
(275,1470,cs),
(-131,1470,o),
(-460,1141,o),
(-460,735,cs),
(-460,329,o),
(-131,0,o),
(275,0,cs)
);
},
{
closed = 1;
nodes = (
(289,709,o),
(301,721,o),
(301,735,cs),
(301,749,o),
(289,761,o),
(275,761,cs),
(261,761,o),
(249,749,o),
(249,735,cs),
(249,721,o),
(261,709,o),
(275,709,cs)
);
},
{
closed = 1;
nodes = (
(653,50,o),
(960,357,o),
(960,735,cs),
(960,1113,o),
(653,1420,o),
(275,1420,cs),
(-103,1420,o),
(-410,1113,o),
(-410,735,cs),
(-410,357,o),
(-103,50,o),
(275,50,cs)
);
}
);
};
layerId = m002;
shapes = (
{
closed = 1;
nodes = (
(171,-15,o),
(349,-15,o),
(507,37,c),
(442,235,l),
(435,232,l),
(424,195,o),
(406,176,o),
(363,156,c),
(366,147,l),
(398,146,o),
(428,119,o),
(444,71,c),
(375,50,o),
(250,42,o),
(158,60,cs),
(108,70,o),
(84,100,o),
(83,133,c),
(75,135,l),
(58,87,o),
(27,70,o),
(0,61,c),
(0,53,l)
);
}
);
width = 550;
},
{
anchors = (
{
name = bottom;
pos = (175,0);
},
{
name = top;
pos = (150,230);
}
);
associatedMasterId = m002;
attr = {
coordinates = (
0,
-50,
0
);
};
background = {
shapes = (
{
closed = 1;
nodes = (
(581,0,o),
(910,329,o),
(910,735,cs),
(910,1141,o),
(581,1470,o),
(175,1470,cs),
(-231,1470,o),
(-560,1141,o),
(-560,735,cs),
(-560,329,o),
(-231,0,o),
(175,0,cs)
);
},
{
closed = 1;
nodes = (
(189,709,o),
(201,721,o),
(201,735,cs),
(201,749,o),
(189,761,o),
(175,761,cs),
(161,761,o),
(149,749,o),
(149,735,cs),
(149,721,o),
(161,709,o),
(175,709,cs)
);
},
{
closed = 1;
nodes = (
(553,50,o),
(860,357,o),
(860,735,cs),
(860,1113,o),
(553,1420,o),
(175,1420,cs),
(-203,1420,o),
(-510,1113,o),
(-510,735,cs),
(-510,357,o),
(-203,50,o),
(175,50,cs)
);
}
);
};
layerId = "024C27B4-1248-48DC-9D64-6C25CD66E447";
name = "21 Nov 25 at 10:31";
shapes = (
{
closed = 1;
nodes = (
(100,-5,o),
(215,-5,o),
(307,12,c),
(280,213,l),
(272,212,l),
(255,177,o),
(234,162,o),
(188,150,c),
(189,141,l),
(235,130,o),
(250,73,o),
(252,54,c),
(218,51,o),
(193,49,o),
(160,50,cs),
(98,52,o),
(74,80,o),
(58,121,c),
(50,121,l),
(45,73,o),
(33,51,o),
(0,29,c),
(0,21,l)
);
}
);
width = 350;
},
{
anchors = (
{
name = bottom;
pos = (2350,0);
},
{
name = top;
pos = (2350,230);
}
);
associatedMasterId = m002;
attr = {
coordinates = (
200,
-50,
0
);
};
background = {
shapes = (
{
closed = 1;
nodes = (
(681,0,o),
(1010,329,o),
(1010,735,cs),
(1010,1141,o),
(681,1470,o),
(275,1470,cs),
(-131,1470,o),
(-460,1141,o),
(-460,735,cs),
(-460,329,o),
(-131,0,o),
(275,0,cs)
);
},
{
closed = 1;
nodes = (
(289,709,o),
(301,721,o),
(301,735,cs),
(301,749,o),
(289,761,o),
(275,761,cs),
(261,761,o),
(249,749,o),
(249,735,cs),
(249,721,o),
(261,709,o),
(275,709,cs)
);
},
{
closed = 1;
nodes = (
(653,50,o),
(960,357,o),
(960,735,cs),
(960,1113,o),
(653,1420,o),
(275,1420,cs),
(-103,1420,o),
(-410,1113,o),
(-410,735,cs),
(-410,357,o),
(-103,50,o),
(275,50,cs)
);
}
);
};
layerId = "AB626060-4288-449B-A4E2-C81E2FAC2A75";
name = "21 Nov 25 at 10:31";
shapes = (
{
closed = 1;
nodes = (
(1552,0,o),
(3105,0,o),
(4657,0,c),
(4629,205,l),
(4621,204,l),
(4604,169,o),
(4583,154,o),
(4537,142,c),
(4538,133,l),
(4581,123,o),
(4597,72,o),
(4600,50,c),
(3117,50,o),
(1633,50,o),
(150,50,c),
(128,50,o),
(74,59,o),
(58,100,c),
(50,100,l),
(45,52,o),
(33,30,o),
(0,8,c),
(0,0,l)
);
}
);
width = 4700;
}
);
metricLeft = "=0";
metricRight = "=43";
}
{
glyphname = "behDotless-ar.init";
kernLeft = beh;
layers = (
{
anchors = (
{
name = bottom;
pos = (35,0);
},
{
name = top;
pos = (35,200);
}
);
layerId = m01;
shapes = (
{
closed = 1;
nodes = (
(119,0,l),
(91,205,l),
(83,204,l),
(66,169,o),
(45,154,o),
(-1,142,c),
(0,133,l),
(43,123,o),
(59,72,o),
(62,50,c),
(69,0,l)
);
},
{
closed = 1;
nodes = (
(112,0,l),
(112,50,l),
(-10,50,l),
(-10,0,l)
);
}
);
width = 162;
},
{
associatedMasterId = m01;
layerId = "A091571A-009A-47A6-BB3A-3B5A75543C9C";
name = "22 Mar 24 at 13:16";
shapes = (
{
closed = 1;
nodes = (
(-10,50,l),
(-10,0,l),
(100,0,l),
(100,200,l),
(92,200,l),
(70,167,o),
(48,155,o),
(0,150,c),
(0,142,l),
(41,126,o),
(50,72,o),
(50,50,c)
);
}
);
visible = 1;
width = 110;
}
);
metricLeft = "=-10";
metricRight = "=50@50";
}
{
color = 3;
glyphname = "behDotless-ar.init.high";
kernLeft = beh.high;
layers = (
{
anchors = (
{
name = bottom;
pos = (66,0);
},
{
name = ring;
pos = (66,0);
},
{
name = top;
pos = (36,250);
}
);
layerId = m01;
shapes = (
{
closed = 1;
nodes = (
(82,283,l),
(74,282,l),
(57,247,o),
(36,232,o),
(-10,220,c),
(-9,211,l),
(34,201,o),
(50,150,o),
(53,128,c),
(64,34,l),
(120,0,l)
);
},
{
closed = 1;
nodes = (
(120,0,l),
(83,50,l),
(-9,50,l),
(-9,0,l)
);
}
);
width = 163;
},
{
associatedMasterId = m01;
layerId = "A091571A-009A-47A6-BB3A-3B5A75543C9C";
name = "22 Mar 24 at 13:16";
shapes = (
{
closed = 1;
nodes = (
(-10,50,l),
(-10,0,l),
(100,0,l),
(100,200,l),
(92,200,l),
(70,167,o),
(48,155,o),
(0,150,c),
(0,142,l),
(41,126,o),
(50,72,o),
(50,50,c)
);
}
);
width = 110;
}
);
metricLeft = "=-10";
metricRight = "=50@50";
}
{
glyphname = "dal-ar.isol";
layers = (
{
anchors = (
{
name = bottom;
pos = (283,0);
},
{
name = top;
pos = (351,200);
}
);
backgroundImage = {
angle = 1;
imagePath = "images/31246001-fixed.jpg";
pos = (-15009,-10137);
scale = (209.3003,209.3003);
};
layerId = m01;
shapes = (
{
closed = 1;
nodes = (
(557,0,l),
(508,50,l),
(400,50,l),
(400,0,l)
);
},
{
closed = 1;
nodes = (
(161,108,l),
(166,159,ls),
(170,181,o),
(184,233,o),
(228,244,c),
(228,252,l),
(182,264,o),
(162,277,o),
(144,313,c),
(135,314,l),
(110,100,l)
);
},
{
closed = 1;
nodes = (
(508,100,l),
(537,150,l),
(140,150,l),
(110,100,l)
);
},
{
closed = 1;
nodes = (
(537,150,l),
(492,100,l),
(499,50,l),
(557,0,l)
);
},
{
ref = _tail;
}
);
width = 600;
},
{
anchors = (
{
name = bottom;
pos = (163,0);
},
{
name = top;
pos = (231,250);
}
);
associatedMasterId = m01;
attr = {
coordinates = (
0,
0,
0
);
};
backgroundImage = {
angle = 1;
imagePath = "images/31246001-fixed.jpg";
pos = (-15009,-10137);
scale = (209.3003,209.3003);
};
layerId = "C39D2BE4-F5E8-43A2-BF93-E4F556EBA3F6";
name = "5 Oct 24 at 16:04";
shapes = (
{
closed = 1;
nodes = (
(307,0,l),
(258,50,l),
(143,50,l),
(143,0,l)
);
},
{
closed = 1;
nodes = (
(161,108,l),
(166,159,ls),
(170,181,o),
(184,233,o),
(228,244,c),
(228,252,l),
(182,264,o),
(162,277,o),
(144,313,c),
(135,314,l),
(110,100,l)
);
},
{
closed = 1;
nodes = (
(258,100,l),
(287,150,l),
(140,150,l),
(110,100,l)
);
},
{
closed = 1;
nodes = (
(287,150,l),
(242,100,l),
(249,50,l),
(307,0,l)
);
},
{
ref = _tail;
}
);
width = 350;
},
{
anchors = (
{
name = bottom;
pos = (2350,0);
},
{
name = top;
pos = (2350,200);
}
);
associatedMasterId = m01;
attr = {
coordinates = (
200,
0,
0
);
};
backgroundImage = {
angle = 1;
imagePath = "images/31246001-fixed.jpg";
pos = (-15009,-10137);
scale = (209.3003,209.3003);
};
layerId = "EC9C3B43-3C90-410E-8875-11906B7E1551";
name = "5 Oct 24 at 16:04";
shapes = (
{
closed = 1;
nodes = (
(4657,0,l),
(4608,50,l),
(4600,50,l),
(4600,0,l)
);
},
{
closed = 1;
nodes = (
(161,108,l),
(166,159,ls),
(170,181,o),
(184,233,o),
(228,244,c),
(228,252,l),
(182,264,o),
(162,277,o),
(144,313,c),
(135,314,l),
(110,100,l)
);
},
{
closed = 1;
nodes = (
(4608,100,l),
(4637,150,l),
(140,150,l),
(110,100,l)
);
},
{
closed = 1;
nodes = (
(4637,150,l),
(4592,100,l),
(4599,50,l),
(4657,0,l)
);
},
{
ref = _tail;
}
);
width = 4700;
},
{
anchors = (
{
name = bottom;
pos = (283,0);
},
{
name = top;
pos = (351,200);
}
);
backgroundImage = {
angle = 1;
imagePath = "images/31246001-fixed.jpg";
pos = (-15009,-10137);
scale = (209.3003,209.3003);
};
layerId = m002;
shapes = (
{
closed = 1;
nodes = (
(557,0,l),
(508,50,l),
(400,50,l),
(400,0,l)
);
},
{
closed = 1;
nodes = (
(161,108,l),
(166,159,ls),
(170,181,o),
(184,233,o),
(228,244,c),
(228,252,l),
(182,264,o),
(162,277,o),
(144,313,c),
(135,314,l),
(110,100,l)
);
},
{
closed = 1;
nodes = (
(508,100,l),
(537,150,l),
(140,150,l),
(110,100,l)
);
},
{
closed = 1;
nodes = (
(537,150,l),
(492,100,l),
(499,50,l),
(557,0,l)
);
},
{
ref = _tail;
}
);
width = 600;
},
{
anchors = (
{
name = bottom;
pos = (163,0);
},
{
name = top;
pos = (231,250);
}
);
associatedMasterId = m002;
attr = {
coordinates = (
0,
-50,
0
);
};
backgroundImage = {
angle = 1;
imagePath = "images/31246001-fixed.jpg";
pos = (-15009,-10137);
scale = (209.3003,209.3003);
};
layerId = "38851DAC-8DC8-4F9C-8AD3-2C296E86B3A8";
name = "5 Oct 24 at 16:04";
shapes = (
{
closed = 1;
nodes = (
(307,0,l),
(258,50,l),
(143,50,l),
(143,0,l)
);
},
{
closed = 1;
nodes = (
(161,108,l),
(166,159,ls),
(170,181,o),
(184,233,o),
(228,244,c),
(228,252,l),
(182,264,o),
(162,277,o),
(144,313,c),
(135,314,l),
(110,100,l)
);
},
{
closed = 1;
nodes = (
(258,100,l),
(287,150,l),
(140,150,l),
(110,100,l)
);
},
{
closed = 1;
nodes = (
(287,150,l),
(242,100,l),
(249,50,l),
(307,0,l)
);
},
{
ref = _tail;
}
);
width = 350;
},
{
anchors = (
{
name = bottom;
pos = (2350,0);
},
{
name = top;
pos = (2350,200);
}
);
associatedMasterId = m002;
attr = {
coordinates = (
200,
-50,
0
);
};
backgroundImage = {
angle = 1;
imagePath = "images/31246001-fixed.jpg";
pos = (-15009,-10137);
scale = (209.3003,209.3003);
};
layerId = "828C37CA-D932-4283-B353-DDB9F736007A";
name = "5 Oct 24 at 16:04";
shapes = (
{
closed = 1;
nodes = (
(4657,0,l),
(4608,50,l),
(4600,50,l),
(4600,0,l)
);
},
{
closed = 1;
nodes = (
(161,108,l),
(166,159,ls),
(170,181,o),
(184,233,o),
(228,244,c),
(228,252,l),
(182,264,o),
(162,277,o),
(144,313,c),
(135,314,l),
(110,100,l)
);
},
{
closed = 1;
nodes = (
(4608,100,l),
(4637,150,l),
(140,150,l),
(110,100,l)
);
},
{
closed = 1;
nodes = (
(4637,150,l),
(4592,100,l),
(4599,50,l),
(4657,0,l)
);
},
{
ref = _tail;
}
);
width = 4700;
}
);
metricLeft = "=0";
metricRight = "=50@50";
}
{
glyphname = "dotbelow-ar";
layers = (
{
anchors = (
{
name = _bottom;
pos = (38,125);
},
{
name = bottom.mkmk;
pos = (38,0);
}
);
layerId = m01;
shapes = (
{
closed = 1;
nodes = (
(58,0,o),
(75,17,o),
(75,38,cs),
(75,58,o),
(58,75,o),
(38,75,cs),
(17,75,o),
(0,58,o),
(0,38,cs),
(0,17,o),
(17,0,o),
(38,0,cs)
);
}
);
width = 75;
}
);
metricLeft = "=0";
metricRight = "=0";
}
{
glyphname = eight.dnom;
layers = (
{
layerId = m01;
shapes = (
{
closed = 1;
nodes = (
(215,84,o),
(264,118,o),
(264,173,cs),
(264,214,o),
(227,254,o),
(156,254,cs),
(85,254,o),
(49,214,o),
(49,173,cs),
(49,119,o),
(96,91,o),
(150,64,cs),
(198,39,o),
(233,21,o),
(233,-16,cs),
(233,-41,o),
(201,-61,o),
(156,-61,cs),
(111,-61,o),
(80,-41,o),
(80,-16,cs),
(80,28,o),
(129,62,o),
(177,79,c),
(157,106,l),
(105,87,o),
(33,54,o),
(33,-16,cs),
(33,-67,o),
(82,-103,o),
(156,-103,cs),
(230,-103,o),
(280,-67,o),
(280,-16,cs),
(280,46,o),
(224,75,o),
(174,100,cs),
(132,121,o),
(96,139,o),
(96,173,cs),
(96,196,o),
(118,212,o),
(156,212,cs),
(194,212,o),
(217,196,o),
(217,173,cs),
(217,135,o),
(176,103,o),
(142,93,c),
(162,66,l)
);
}
);
width = 312;
},
{
associatedMasterId = m01;
layerId = "D7A54AD1-0A70-4FFD-8BDF-9D84290B9E41";
name = "10 Apr 26 at 13:44";
shapes = (
{
pos = (0,-100);
ref = eight.tf;
scale = (0.8,0.7);
}
);
width = 312;
}
);
metricWidth = "=zero.dnom";
}
{
glyphname = "fatha-ar.kashida.alt";
layers = (
{
anchors = (
{
name = _top;
pos = (73,250);
},
{
name = _topKashida;
pos = (73,250);
}
);
layerId = m01;
shapes = (
{
closed = 1;
nodes = (
(123,487,l),
(127,509,l),
(4,472,l),
(0,450,l)
);
}
);
width = 127;
},
{
anchors = (
{
name = _top;
pos = (105,250);
},
{
name = _topKashida;
pos = (105,250);
}
);
associatedMasterId = m01;
attr = {
coordinates = (
20
);
};
layerId = "8829F60C-F120-4592-8F64-48DF2B7B8E6D";
name = "8 Nov 25 at 17:53";
shapes = (
{
closed = 1;
nodes = (
(294,481,l),
(298,503,l),
(4,447,l),
(0,425,l)
);
}
);
width = 350;
},
{
anchors = (
{
name = _top;
pos = (1955,250);
},
{
name = _topKashida;
pos = (1955,250);
}
);
associatedMasterId = m01;
attr = {
coordinates = (
200
);
};
layerId = "36CC679B-E3C4-4F05-A64F-E07DCB2E2B2C";
metricWidth = "=beh-ar.isol-200";
name = "{200} 6 Nov 25 at 16:06";
shapes = (
{
closed = 1;
nodes = (
(4240,561,l),
(4247,582,l),
(7,423,l),
(0,402,l)
);
}
);
width = 4500;
},
{
anchors = (
{
name = _top;
pos = (715,250);
},
{
name = _topAlt;
pos = (715,374);
}
);
associatedMasterId = m01;
layerId = "2A4E3553-2C3B-4B05-B173-8E0322E87A98";
name = "5 Nov 25 at 19:43";
shapes = (
{
closed = 1;
nodes = (
(1424,550,l),
(1431,573,l),
(7,403,l),
(0,380,l)
);
}
);
width = 2860;
}
);
}
{
glyphname = "fatha-ar.kashida";
layers = (
{
anchors = (
{
name = _top;
pos = (75,350);
},
{
name = _topAlt;
pos = (75,400);
}
);
layerId = m01;
shapes = (
{
closed = 1;
nodes = (
(125,487,l),
(130,509,l),
(5,466,l),
(2,450,l)
);
}
);
width = 150;
},
{
anchors = (
{
name = _top;
pos = (1425,250);
},
{
name = _topAlt;
pos = (1425,374);
}
);
associatedMasterId = m01;
attr = {
coordinates = (
200
);
};
layerId = "36CC679B-E3C4-4F05-A64F-E07DCB2E2B2C";
name = "{200} 6 Nov 25 at 16:06";
shapes = (
{
closed = 1;
nodes = (
(2843,550,l),
(2850,573,l),
(7,403,l),
(0,380,l)
);
}
);
width = 2850;
},
{
anchors = (
{
name = _top;
pos = (715,250);
},
{
name = _topAlt;
pos = (715,374);
}
);
associatedMasterId = m01;
layerId = "2A4E3553-2C3B-4B05-B173-8E0322E87A98";
name = "5 Nov 25 at 19:43";
shapes = (
{
closed = 1;
nodes = (
(1424,550,l),
(1431,573,l),
(7,403,l),
(0,380,l)
);
}
);
width = 2860;
}
);
}
{
glyphname = "fathatan-ar.kashida";
layers = (
{
anchors = (
{
name = _top;
pos = (75,350);
},
{
name = _topAlt;
pos = (75,400);
}
);
layerId = m01;
shapes = (
{
closed = 1;
nodes = (
(140,539,l),
(133,558,l),
(10,511,l),
(15,497,l)
);
},
{
ref = "fatha-ar";
}
);
width = 150;
},
{
anchors = (
{
name = _top;
pos = (75,350);
},
{
name = _topAlt;
pos = (75,400);
}
);
associatedMasterId = m01;
attr = {
coordinates = (
11
);
};
layerId = "45863443-CFE4-4547-B0BA-E5B9A97FCD97";
name = "5 Nov 25 at 19:49";
shapes = (
{
closed = 1;
nodes = (
(136,538,l),
(142,562,l),
(14,513,l),
(11,496,l)
);
},
{
ref = "fatha-ar.kashida";
}
);
width = 150;
},
{
anchors = (
{
name = _top;
pos = (715,250);
},
{
name = _topAlt;
pos = (715,374);
}
);
associatedMasterId = m01;
attr = {
coordinates = (
100
);
};
layerId = "84893837-70CB-479D-8179-EBA83F0809BA";
name = "5 Nov 25 at 19:49";
shapes = (
{
closed = 1;
nodes = (
(1435,590,l),
(1442,613,l),
(18,443,l),
(11,420,l)
);
},
{
ref = "fatha-ar.kashida";
}
);
width = 1442;
}
);
metricWidth = "=fatha-ar";
}
{
glyphname = "fehDotless-ar.init";
layers = (
{
anchors = (
{
name = bottom;
pos = (105,0);
},
{
name = top;
pos = (89,300);
}
);
backgroundImage = {
angle = 45.1;
imagePath = "images/31246001-fixed.jpg";
locked = 1;
pos = (202,-22001);
scale = (209.3003,209.3003);
};
layerId = m01;
shapes = (
{
closed = 1;
nodes = (
(48,151,l),
(54,195,o),
(75,216,o),
(89,216,cs),
(122,216,o),
(140,158,o),
(154,50,c),
(-10,50,l),
(-10,0,l),
(210,0,l),
(194,148,o),
(175,266,o),
(89,266,cs),
(43,266,o),
(-3,215,o),
(-7,127,cs),
(-8,110,o),
(2,101,o),
(18,101,cs),
(149,101,l),
(149,151,l)
);
}
);
width = 220;
}
);
metricLeft = "=-10";
metricRight = "=10";
}
{
glyphname = "five-ar.dnom";
layers = (
{
layerId = m01;
shapes = (
{
closed = 1;
nodes = (
(222,-15,o),
(260,17,o),
(260,75,cs),
(260,110,o),
(232,167,o),
(156,167,cs),
(80,167,o),
(53,110,o),
(53,75,cs),
(53,17,o),
(90,-15,o),
(156,-15,cs)
);
},
{
closed = 1;
nodes = (
(118,27,o),
(100,39,o),
(100,75,cs),
(100,96,o),
(115,125,o),
(156,125,cs),
(197,125,o),
(213,96,o),
(213,75,cs),
(213,39,o),
(194,27,o),
(156,27,cs)
);
}
);
width = 312;
},
{
associatedMasterId = m01;
layerId = "AF5E3085-69A1-4F3C-9DD6-1EF30FD00B7A";
name = "10 Apr 26 at 13:44";
shapes = (
{
ref = "five-ar.tf";
scale = (0.8,0.7);
}
);
width = 312;
}
);
metricWidth = "=zero-ar.dnom";
}
{
category = Number;
glyphname = "five-ar.tf";
layers = (
{
layerId = m01;
shapes = (
{
alignment = -1;
pos = (20,0);
ref = "five-ar";
}
);
width = 390;
},
{
associatedMasterId = m01;
layerId = "40B6DED3-6F27-4D80-9E7B-A7D6E941A601";
name = "4 Jul 25 at 07:57";
shapes = (
{
closed = 1;
nodes = (
(308,0,o),
(350,88,o),
(350,186,cs),
(350,310,o),
(284,450,o),
(200,450,cs),
(116,450,o),
(50,310,o),
(50,186,cs),
(50,88,o),
(92,0,o),
(200,0,cs)
);
},
{
closed = 1;
nodes = (
(127,50,o),
(100,111,o),
(100,182,cs),
(100,281,o),
(151,400,o),
(200,400,cs),
(249,400,o),
(300,281,o),
(300,182,cs),
(300,111,o),
(273,50,o),
(200,50,cs)
);
}
);
width = 400;
}
);
metricLeft = "=70";
metricRight = "=|";
metricWidth = "=zero-ar.tf";
script = arabic;
sortName = tf.ar3141;
sortNameKeep = ar3141.tnum;
subCategory = "Decimal Digit";
}
{
glyphname = five.dnom;
layers = (
{
layerId = m01;
shapes = (
{
closed = 1;
nodes = (
(11,-154,l),
(91,-187,o),
(278,-187,o),
(278,-54,cs),
(278,51,o),
(167,77,o),
(-15,25,c),
(56,83,l),
(56,-1,l),
(19,-2,l),
(143,23,o),
(231,17,o),
(231,-54,cs),
(231,-159,o),
(51,-133,o),
(12,-117,c),
(35,-95,l),
(35,-177,l)
);
},
{
closed = 1;
nodes = (
(103,28,l),
(102,149,l),
(94,184,l),
(56,184,l),
(56,11,l)
);
},
{
closed = 1;
nodes = (
(258,142,l),
(258,184,l),
(56,184,l),
(56,149,l),
(90,142,l)
);
},
{
closed = 1;
nodes = (
(258,107,l),
(258,162,l),
(217,169,l),
(227,107,l)
);
}
);
width = 312;
},
{
associatedMasterId = m01;
layerId = "D52CBB84-A08A-4516-A523-BA76B6268874";
name = "10 Apr 26 at 13:44";
shapes = (
{
pos = (0,-100);
ref = five.tf;
scale = (0.8,0.7);
}
);
width = 312;
}
);
metricWidth = "=zero.dnom";
}
{
glyphname = "fiveFarsi-ar.dnom";
layers = (
{
layerId = m01;
shapes = (
{
closed = 1;
nodes = (
(144,-33,o),
(173,-10,o),
(171,44,c),
(137,43,l),
(135,-10,o),
(165,-33,o),
(195,-33,cs),
(227,-33,o),
(260,-6,o),
(260,43,cs),
(260,108,o),
(182,159,o),
(138,199,c),
(104,170,l),
(131,146,ls),
(171,113,o),
(213,77,o),
(213,43,cs),
(213,20,o),
(201,9,o),
(191,9,cs),
(180,9,o),
(171,20,o),
(172,44,c),
(136,43,l),
(138,20,o),
(127,9,o),
(118,9,cs),
(108,9,o),
(100,19,o),
(100,43,cs),
(100,65,o),
(118,96,o),
(173,129,c),
(147,164,l),
(77,123,o),
(53,79,o),
(53,43,cs),
(53,-6,o),
(84,-33,o),
(114,-33,cs)
);
}
);
width = 312;
},
{
associatedMasterId = m01;
layerId = "49882073-3BBC-4177-8540-37726F1EC752";
name = "10 Apr 26 at 13:44";
shapes = (
{
ref = "fiveFarsi-ar.tf";
scale = (0.8,0.7);
}
);
width = 312;
}
);
metricWidth = "=zero-ar.dnom";
sortName = dnom.ar3142;
sortNameKeep = ar3171.dnom;
}
{
category = Number;
glyphname = "fiveFarsi-ar.tf";
layers = (
{
layerId = m01;
shapes = (
{
alignment = -1;
pos = (20,0);
ref = "fiveFarsi-ar";
}
);
width = 390;
},
{
associatedMasterId = m01;
layerId = "A73E18B3-8D34-4249-BF1E-3B9FD53E4F7C";
name = "2 Jul 25 at 01:58";
shapes = (
{
closed = 1;
nodes = (
(308,50,o),
(350,138,o),
(350,236,cs),
(350,360,o),
(284,500,o),
(200,500,cs),
(116,500,o),
(50,360,o),
(50,236,cs),
(50,138,o),
(92,50,o),
(200,50,cs)
);
},
{
closed = 1;
nodes = (
(127,100,o),
(100,161,o),
(100,232,cs),
(100,331,o),
(151,450,o),
(200,450,cs),
(249,450,o),
(300,331,o),
(300,232,cs),
(300,161,o),
(273,100,o),
(200,100,cs)
);
}
);
width = 400;
},
{
associatedMasterId = m01;
layerId = "4CDA9476-67BC-459A-9642-AA796AF0D929";
name = "4 Jul 25 at 07:58";
shapes = (
{
closed = 1;
nodes = (
(177,62,o),
(197,82,o),
(207,104,c),
(193,104,l),
(203,82,o),
(223,62,o),
(246,62,cs),
(299,62,o),
(350,118,o),
(350,232,cs),
(350,369,o),
(281,500,o),
(200,500,cs),
(119,500,o),
(50,369,o),
(50,232,cs),
(50,118,o),
(101,62,o),
(154,62,cs)
);
},
{
closed = 1;
nodes = (
(123,112,o),
(100,157,o),
(100,232,cs),
(100,331,o),
(151,450,o),
(200,450,cs),
(249,450,o),
(300,331,o),
(300,232,cs),
(300,157,o),
(277,112,o),
(249,112,cs),
(225,112,o),
(205,139,o),
(205,175,c),
(195,175,l),
(195,139,o),
(175,112,o),
(151,112,cs)
);
}
);
width = 400;
},
{
associatedMasterId = m01;
layerId = "D2068597-C7E4-49CA-87AD-F5103A06CB77";
name = "4 Jul 25 at 07:58";
shapes = (
{
closed = 1;
nodes = (
(255,125,o),
(300,170,o),
(300,250,cs),
(300,299,o),
(266,375,o),
(175,375,cs),
(84,375,o),
(50,299,o),
(50,250,cs),
(50,170,o),
(95,125,o),
(175,125,cs)
);
},
{
closed = 1;
nodes = (
(125,175,o),
(100,196,o),
(100,250,cs),
(100,281,o),
(120,325,o),
(175,325,cs),
(230,325,o),
(250,281,o),
(250,250,cs),
(250,196,o),
(225,175,o),
(175,175,cs)
);
}
);
width = 400;
},
{
associatedMasterId = m01;
layerId = "F913C020-F221-483A-B121-F28E0F7FF53E";
name = "4 Jul 25 at 08:00";
shapes = (
{
closed = 0;
nodes = (
(152,446,l),
(201,396,o),
(300,321,o),
(300,225,cs),
(300,171,o),
(255,125,o),
(173,125,cs),
(90,125,o),
(50,172,o),
(50,225,cs),
(50,300,o),
(104,356,o),
(162,396,c)
);
}
);
width = 400;
},
{
layerId = m002;
shapes = (
{
alignment = -1;
pos = (20,0);
ref = "fiveFarsi-ar";
}
);
width = 390;
},
{
associatedMasterId = m002;
layerId = "24EF752A-3F4B-4689-964C-2694EBA0DF05";
name = "2 Jul 25 at 01:58";
shapes = (
{
closed = 1;
nodes = (
(308,50,o),
(350,138,o),
(350,236,cs),
(350,360,o),
(284,500,o),
(200,500,cs),
(116,500,o),
(50,360,o),
(50,236,cs),
(50,138,o),
(92,50,o),
(200,50,cs)
);
},
{
closed = 1;
nodes = (
(127,100,o),
(100,161,o),
(100,232,cs),
(100,331,o),
(151,450,o),
(200,450,cs),
(249,450,o),
(300,331,o),
(300,232,cs),
(300,161,o),
(273,100,o),
(200,100,cs)
);
}
);
width = 400;
},
{
associatedMasterId = m002;
layerId = "4BA7E70C-8D75-4C48-9D68-DB68CFA65774";
name = "4 Jul 25 at 07:58";
shapes = (
{
closed = 1;
nodes = (
(177,62,o),
(197,82,o),
(207,104,c),
(193,104,l),
(203,82,o),
(223,62,o),
(246,62,cs),
(299,62,o),
(350,118,o),
(350,232,cs),
(350,369,o),
(281,500,o),
(200,500,cs),
(119,500,o),
(50,369,o),
(50,232,cs),
(50,118,o),
(101,62,o),
(154,62,cs)
);
},
{
closed = 1;
nodes = (
(123,112,o),
(100,157,o),
(100,232,cs),
(100,331,o),
(151,450,o),
(200,450,cs),
(249,450,o),
(300,331,o),
(300,232,cs),
(300,157,o),
(277,112,o),
(249,112,cs),
(225,112,o),
(205,139,o),
(205,175,c),
(195,175,l),
(195,139,o),
(175,112,o),
(151,112,cs)
);
}
);
width = 400;
},
{
associatedMasterId = m002;
layerId = "48CC9A58-5EFE-46EF-8E48-4DBED4FE85EF";
name = "4 Jul 25 at 07:58";
shapes = (
{
closed = 1;
nodes = (
(255,125,o),
(300,170,o),
(300,250,cs),
(300,299,o),
(266,375,o),
(175,375,cs),
(84,375,o),
(50,299,o),
(50,250,cs),
(50,170,o),
(95,125,o),
(175,125,cs)
);
},
{
closed = 1;
nodes = (
(125,175,o),
(100,196,o),
(100,250,cs),
(100,281,o),
(120,325,o),
(175,325,cs),
(230,325,o),
(250,281,o),
(250,250,cs),
(250,196,o),
(225,175,o),
(175,175,cs)
);
}
);
width = 400;
},
{
associatedMasterId = m002;
layerId = "B9399FF7-3289-4ABC-8334-192B304FAA89";
name = "4 Jul 25 at 08:00";
shapes = (
{
closed = 0;
nodes = (
(152,446,l),
(201,396,o),
(300,321,o),
(300,225,cs),
(300,171,o),
(255,125,o),
(173,125,cs),
(90,125,o),
(50,172,o),
(50,225,cs),
(50,300,o),
(104,356,o),
(162,396,c)
);
}
);
width = 400;
}
);
metricLeft = "=five-ar.tf";
metricRight = "=five-ar.tf";
metricWidth = "=zero-ar.tf";
script = arabic;
sortName = tf.ar3142;
sortNameKeep = ar3171;
subCategory = "Decimal Digit";
}
{
glyphname = "four-ar.dnom";
layers = (
{
layerId = m01;
shapes = (
{
closed = 1;
nodes = (
(262,-63,l),
(147,-38,l),
(179,34,ls),
(189,58,o),
(178,76,o),
(153,83,cs),
(101,97,l),
(160,202,l),
(117,219,l),
(57,112,ls),
(42,86,o),
(56,66,o),
(79,60,cs),
(133,45,l),
(100,-29,ls),
(88,-55,o),
(102,-74,o),
(133,-80,cs),
(252,-104,l)
);
}
);
width = 312;
},
{
associatedMasterId = m01;
layerId = "982B1BF1-C01D-4E51-BF36-5471704C946D";
name = "10 Apr 26 at 13:44";
shapes = (
{
ref = "four-ar.tf";
scale = (0.8,0.7);
}
);
width = 312;
}
);
metricWidth = "=zero-ar.dnom";
}
{
glyphname = four.dnom;
layers = (
{
layerId = m01;
shapes = (
{
closed = 1;
nodes = (
(235,151,l),
(204,185,l),
(31,-38,l),
(70,-62,l)
);
},
{
closed = 1;
nodes = (
(280,-68,l),
(280,-26,l),
(67,-27,l),
(33,-34,l),
(33,-68,l)
);
},
{
closed = 1;
nodes = (
(240,-157,l),
(240,184,l),
(201,184,l),
(193,128,l),
(192,-157,l)
);
}
);
width = 312;
},
{
associatedMasterId = m01;
layerId = "73560A09-5F9D-4129-AD1F-C2528B5D566A";
name = "10 Apr 26 at 13:44";
shapes = (
{
pos = (0,-100);
ref = four.tf;
scale = (0.8,0.7);
}
);
width = 312;
}
);
metricWidth = "=zero.dnom";
}
{
glyphname = "fourFarsi-ar.dnom";
layers = (
{
layerId = m01;
shapes = (
{
closed = 1;
nodes = (
(270,117,l),
(201,97,o),
(94,101,o),
(57,138,c),
(53,88,l),
(116,56,o),
(218,58,o),
(285,77,c)
);
},
{
closed = 1;
nodes = (
(134,-96,l),
(122,-11,o),
(101,77,o),
(71,162,c),
(28,145,l),
(56,62,o),
(76,-21,o),
(88,-104,c)
);
},
{
closed = 1;
nodes = (
(272,118,l),
(250,109,o),
(212,108,o),
(212,137,cs),
(212,152,o),
(226,167,o),
(261,165,c),
(260,207,l),
(201,209,o),
(165,175,o),
(165,137,cs),
(165,86,o),
(216,65,o),
(265,73,c)
);
}
);
width = 312;
},
{
associatedMasterId = m01;
layerId = "E6935FD1-FB84-4240-9969-03FBD66DDAAA";
name = "10 Apr 26 at 13:44";
shapes = (
{
ref = "fourFarsi-ar.tf";
scale = (0.8,0.7);
}
);
width = 312;
}
);
metricWidth = "=zero-ar.dnom";
sortName = dnom.ar3139;
sortNameKeep = ar3168.dnom;
}
{
category = Number;
glyphname = "fourFarsi-ar.tf";
layers = (
{
layerId = m01;
shapes = (
{
alignment = -1;
pos = (-10,0);
ref = "fourFarsi-ar";
}
);
width = 390;
},
{
associatedMasterId = m01;
layerId = "D46523E0-64F9-4721-86FB-3C9F795D1851";
name = "4 Jul 25 at 06:33";
shapes = (
{
closed = 1;
nodes = (
(215,10,l),
(193,173,o),
(157,342,o),
(94,500,c),
(50,481,l),
(109,326,o),
(145,160,o),
(166,0,c)
);
},
{
closed = 1;
nodes = (
(284,350,o),
(350,408,o),
(350,495,c),
(300,495,l),
(300,430,o),
(250,400,o),
(200,400,cs),
(161,400,o),
(126,418,o),
(111,456,c),
(85,398,l),
(113,368,o),
(154,350,o),
(200,350,cs)
);
}
);
width = 370;
},
{
associatedMasterId = m01;
layerId = "B2CFEED8-3ACC-4C54-9AB4-CB82517D1CCA";
name = "4 Jul 25 at 07:02";
shapes = (
{
closed = 1;
nodes = (
(215,10,l),
(193,173,o),
(157,342,o),
(94,500,c),
(50,481,l),
(109,326,o),
(145,160,o),
(166,0,c)
);
},
{
closed = 1;
nodes = (
(300,405,l),
(235,378,o),
(143,383,o),
(114,448,c),
(81,397,l),
(135,332,o),
(247,329,o),
(320,359,c)
);
},
{
closed = 1;
nodes = (
(300,405,l),
(279,398,o),
(243,399,o),
(243,429,cs),
(243,445,o),
(258,462,o),
(289,460,c),
(289,510,l),
(233,511,o),
(196,481,o),
(196,432,cs),
(196,397,o),
(214,370,o),
(243,358,c)
);
}
);
width = 340;
}
);
metricLeft = "=40";
metricRight = "=|";
metricWidth = "=zero-ar.tf";
script = arabic;
sortName = tf.ar3139;
sortNameKeep = ar3168;
subCategory = "Decimal Digit";
}
{
glyphname = "fourFarsi-ar.urdu.dnom";
layers = (
{
layerId = m01;
shapes = (
{
closed = 1;
nodes = (
(170,-89,l),
(150,-54,o),
(80,85,o),
(80,138,cs),
(80,164,o),
(95,177,o),
(116,177,cs),
(134,177,o),
(153,156,o),
(152,108,c),
(189,84,l),
(281,192,l),
(243,217,l),
(168,129,l),
(200,116,l),
(199,179,o),
(162,219,o),
(116,219,cs),
(70,219,o),
(33,188,o),
(33,138,cs),
(33,77,o),
(101,-57,o),
(125,-104,c)
);
}
);
width = 312;
},
{
associatedMasterId = m01;
layerId = "9CEC0D5B-D425-4C82-9861-C1603575B52A";
name = "10 Apr 26 at 13:44";
shapes = (
{
ref = "fourFarsi-ar.urdu.tf";
scale = (0.8,0.7);
}
);
width = 312;
}
);
metricWidth = "=zero-ar.dnom";
sortName = dnom.ar3140;
sortNameKeep = ar3168.urdu.dnom;
}
{
glyphname = "gafsarkashabove-ar";
layers = (
{
anchors = (
{
name = _gaf;
pos = (145,250);
}
);
layerId = m01;
shapes = (
{
closed = 1;
nodes = (
(31,100,l),
(229,363,l),
(198,363,l),
(0,100,l)
);
}
);
width = 200;
}
);
}
{
glyphname = "hah-ar.alt";
layers = (
{
anchors = (
{
name = bottom;
pos = (200,0);
},
{
name = top;
pos = (169,300);
}
);
backgroundImage = {
angle = 1;
imagePath = "images/31246001-fixed.jpg";
pos = (-15555,-11812);
scale = (209.3003,209.3003);
};
layerId = m01;
shapes = (
{
closed = 1;
nodes = (
(350,0,l),
(350,50,l),
(150,50,ls),
(128,50,o),
(74,59,o),
(58,100,c),
(50,100,l),
(45,52,o),
(33,30,o),
(0,8,c),
(0,0,l)
);
},
{
closed = 1;
nodes = (
(159,260,l),
(164,232,o),
(158,201,o),
(136,168,c),
(142,162,l),
(240,162,o),
(344,-41,o),
(383,-106,c),
(425,-79,l),
(381,-2,o),
(293,168,o),
(165,266,c)
);
}
);
width = 425;
}
);
metricLeft = "=0";
metricRight = "=0";
}
{
glyphname = "hah-ar.alt.isol";
kernRight = hah;
layers = (
{
anchors = (
{
name = bottom;
pos = (200,0);
},
{
name = top;
pos = (169,300);
}
);
backgroundImage = {
angle = 1;
imagePath = "images/31246001-fixed.jpg";
pos = (-15555,-11812);
scale = (209.3003,209.3003);
};
layerId = m01;
shapes = (
{
closed = 1;
nodes = (
(425,-79,l),
(381,-2,o),
(293,168,o),
(165,266,c),
(159,260,l),
(164,232,o),
(158,201,o),
(136,168,c),
(142,162,l),
(240,162,o),
(344,-41,o),
(383,-106,c)
);
},
{
closed = 1;
nodes = (
(350,0,l),
(350,50,l),
(150,50,ls),
(128,50,o),
(74,59,o),
(58,100,c),
(50,100,l),
(45,52,o),
(33,30,o),
(0,8,c),
(0,0,l)
);
}
);
width = 425;
},
{
anchors = (
{
name = bottom;
pos = (200,0);
},
{
name = top;
pos = (169,300);
}
);
backgroundImage = {
angle = 1;
imagePath = "images/31246001-fixed.jpg";
pos = (-15555,-11812);
scale = (209.3003,209.3003);
};
layerId = m002;
shapes = (
{
closed = 1;
nodes = (
(425,-79,l),
(381,-2,o),
(293,168,o),
(165,266,c),
(159,260,l),
(164,232,o),
(158,201,o),
(136,168,c),
(142,162,l),
(240,162,o),
(344,-41,o),
(383,-106,c)
);
},
{
closed = 1;
nodes = (
(350,0,l),
(350,50,l),
(150,50,ls),
(128,50,o),
(74,59,o),
(58,100,c),
(50,100,l),
(45,52,o),
(33,30,o),
(0,8,c),
(0,0,l)
);
}
);
width = 425;
}
);
metricLeft = "=0";
metricRight = "=0";
}
{
glyphname = "hah-ar.alt3.isol";
kernRight = hah;
layers = (
{
anchors = (
{
name = bottom;
pos = (270,0);
}
);
backgroundImage = {
angle = 1;
imagePath = "images/31246001-fixed.jpg";
locked = 1;
pos = (-15555,-11812);
scale = (209.3003,209.3003);
};
layerId = m01;
shapes = (
{
closed = 1;
nodes = (
(48,-100,o),
(97,-100,cs),
(122,-100,o),
(146,-95,o),
(165,-86,c),
(165,-50,l),
(79,-50,o),
(50,-49,o),
(50,-25,cs),
(50,0,o),
(77,0,o),
(150,0,cs),
(200,0,l),
(200,50,l),
(150,50,ls),
(57,50,o),
(0,33,o),
(0,-25,cs),
(0,-79,o)
);
},
{
pos = (160,0);
ref = "hah-ar.init";
}
);
width = 435;
},
{
anchors = (
{
name = bottom;
pos = (270,0);
}
);
backgroundImage = {
angle = 1;
imagePath = "images/31246001-fixed.jpg";
locked = 1;
pos = (-15555,-11812);
scale = (209.3003,209.3003);
};
layerId = m002;
shapes = (
{
closed = 1;
nodes = (
(48,-100,o),
(97,-100,cs),
(122,-100,o),
(146,-95,o),
(165,-86,c),
(165,-50,l),
(79,-50,o),
(50,-49,o),
(50,-25,cs),
(50,0,o),
(77,0,o),
(150,0,cs),
(200,0,l),
(200,50,l),
(150,50,ls),
(57,50,o),
(0,33,o),
(0,-25,cs),
(0,-79,o)
);
},
{
pos = (160,0);
ref = "hah-ar.init";
}
);
width = 435;
}
);
metricLeft = "=0";
metricRight = "=0";
}
{
glyphname = "hah-ar.init";
kernRight = hah;
layers = (
{
anchors = (
{
name = bottom;
pos = (100,0);
},
{
name = top;
pos = (69,300);
}
);
layerId = m01;
shapes = (
{
closed = 1;
nodes = (
(275,-79,l),
(231,-2,o),
(143,168,o),
(15,266,c),
(9,260,l),
(14,232,o),
(8,201,o),
(-14,168,c),
(-8,162,l),
(90,162,o),
(194,-41,o),
(233,-106,c)
);
},
{
closed = 1;
nodes = (
(200,0,l),
(200,50,l),
(-10,50,l),
(-10,0,l)
);
}
);
width = 275;
},
{
anchors = (
{
name = bottom;
pos = (100,0);
},
{
name = top;
pos = (69,300);
}
);
layerId = m002;
shapes = (
{
closed = 1;
nodes = (
(275,-79,l),
(231,-2,o),
(143,168,o),
(15,266,c),
(9,260,l),
(14,232,o),
(8,201,o),
(-14,168,c),
(-8,162,l),
(90,162,o),
(194,-41,o),
(233,-106,c)
);
},
{
closed = 1;
nodes = (
(200,0,l),
(200,50,l),
(-10,50,l),
(-10,0,l)
);
}
);
width = 275;
}
);
metricLeft = "=-10@0";
metricRight = "=0";
}
{
glyphname = "heh-ar.fina";
layers = (
{
anchors = (
{
name = bottom;
pos = (150,0);
},
{
name = top;
pos = (152,350);
}
);
backgroundImage = {
angle = 90;
imagePath = "images/31246001-fixed.jpg";
pos = (23087,-28829);
scale = (209.3003,209.3003);
};
layerId = m01;
shapes = (
{
closed = 1;
nodes = (
(254,36,l),
(225,150,o),
(165,237,o),
(70,305,c),
(40,265,l),
(127,203,o),
(179,126,o),
(206,24,c)
);
},
{
closed = 1;
nodes = (
(300,0,l),
(300,50,l),
(45,50,l),
(37,36,l),
(37,0,l)
);
},
{
closed = 1;
nodes = (
(99,76,o),
(125,117,o),
(179,143,c),
(157,189,l),
(87,155,o),
(53,98,o),
(37,36,c),
(85,24,l)
);
},
{
closed = 1;
nodes = (
(137,248,l),
(104,281,o),
(88,318,o),
(95,344,c),
(84,348,l),
(71,307,o),
(42,279,o),
(2,265,c),
(6,255,l),
(32,262,o),
(69,246,o),
(102,213,c)
);
}
);
width = 300;
},
{
anchors = (
{
name = bottom;
pos = (150,0);
},
{
name = top;
pos = (152,350);
}
);
backgroundImage = {
angle = 90;
imagePath = "images/31246001-fixed.jpg";
pos = (23087,-28829);
scale = (209.3003,209.3003);
};
layerId = m002;
shapes = (
{
closed = 1;
nodes = (
(254,36,l),
(225,150,o),
(165,237,o),
(70,305,c),
(40,265,l),
(127,203,o),
(179,126,o),
(206,24,c)
);
},
{
closed = 1;
nodes = (
(300,0,l),
(300,50,l),
(45,50,l),
(37,36,l),
(37,0,l)
);
},
{
closed = 1;
nodes = (
(99,76,o),
(125,117,o),
(179,143,c),
(157,189,l),
(87,155,o),
(53,98,o),
(37,36,c),
(85,24,l)
);
},
{
closed = 1;
nodes = (
(137,248,l),
(104,281,o),
(88,318,o),
(95,344,c),
(84,348,l),
(71,307,o),
(42,279,o),
(2,265,c),
(6,255,l),
(32,262,o),
(69,246,o),
(102,213,c)
);
}
);
width = 300;
}
);
metricRight = "=0";
}
{
glyphname = "heh-ar.init";
kernLeft = heh;
layers = (
{
anchors = (
{
name = bottom;
pos = (205,0);
},
{
name = top;
pos = (225,275);
}
);
backgroundImage = {
imagePath = "images/31246001-fixed.jpg";
pos = (-13943,-15881);
scale = (209.3003,209.3003);
};
layerId = m01;
shapes = (
{
closed = 1;
nodes = (
(100,11,l),
(100,50,ls),
(100,119,o),
(156,175,o),
(225,175,cs),
(294,175,o),
(350,119,o),
(350,50,cs),
(350,11,l),
(400,11,l),
(400,50,ls),
(400,147,o),
(322,225,o),
(225,225,cs),
(128,225,o),
(50,147,o),
(50,50,cs),
(50,11,l)
);
},
{
closed = 1;
nodes = (
(400,0,l),
(400,50,l),
(-10,50,l),
(-10,0,l)
);
},
{
closed = 1;
nodes = (
(249,36,l),
(220,150,o),
(160,237,o),
(65,305,c),
(35,265,l),
(122,203,o),
(174,126,o),
(201,24,c)
);
},
{
closed = 1;
nodes = (
(132,248,l),
(99,281,o),
(83,318,o),
(90,344,c),
(79,348,l),
(66,307,o),
(37,279,o),
(-3,265,c),
(1,255,l),
(27,262,o),
(64,246,o),
(97,213,c)
);
}
);
width = 450;
},
{
anchors = (
{
name = bottom;
pos = (205,0);
},
{
name = top;
pos = (225,275);
}
);
backgroundImage = {
imagePath = "images/31246001-fixed.jpg";
pos = (-13943,-15881);
scale = (209.3003,209.3003);
};
layerId = m002;
shapes = (
{
closed = 1;
nodes = (
(100,11,l),
(100,50,ls),
(100,119,o),
(156,175,o),
(225,175,cs),
(294,175,o),
(350,119,o),
(350,50,cs),
(350,11,l),
(400,11,l),
(400,50,ls),
(400,147,o),
(322,225,o),
(225,225,cs),
(128,225,o),
(50,147,o),
(50,50,cs),
(50,11,l)
);
},
{
closed = 1;
nodes = (
(400,0,l),
(400,50,l),
(-10,50,l),
(-10,0,l)
);
},
{
closed = 1;
nodes = (
(249,36,l),
(220,150,o),
(160,237,o),
(65,305,c),
(35,265,l),
(122,203,o),
(174,126,o),
(201,24,c)
);
},
{
closed = 1;
nodes = (
(132,248,l),
(99,281,o),
(83,318,o),
(90,344,c),
(79,348,l),
(66,307,o),
(37,279,o),
(-3,265,c),
(1,255,l),
(27,262,o),
(64,246,o),
(97,213,c)
);
}
);
width = 450;
}
);
metricLeft = "=-10";
metricRight = "=50";
}
{
glyphname = "kaf-ar.init";
layers = (
{
anchors = (
{
name = bottom;
pos = (250,0);
},
{
name = top;
pos = (346,200);
}
);
layerId = m01;
shapes = (
{
closed = 1;
nodes = (
(111,100,l),
(317,373,l),
(271,393,l),
(50,100,l)
);
},
{
closed = 1;
nodes = (
(477,0,l),
(477,50,l),
(-10,50,l),
(-10,0,l)
);
},
{
closed = 1;
nodes = (
(459,100,l),
(459,150,l),
(105,150,l),
(105,100,l)
);
},
{
closed = 1;
nodes = (
(317,373,l),
(149,500,l),
(144,494,l),
(157,456,o),
(153,431,o),
(129,390,c),
(135,385,l),
(172,408,o),
(221,384,o),
(239,370,cs),
(273,344,l)
);
},
{
closed = 1;
nodes = (
(456,0,l),
(507,0,l),
(487,150,l),
(436,150,l)
);
}
);
width = 550;
}
);
metricLeft = "=-10";
metricRight = "=50@50";
}
{
glyphname = "kashida-ar.20";
layers = (
{
layerId = m01;
shapes = (
{
closed = 1;
nodes = (
(20,0,l),
(20,50,l),
(-10,50,l),
(-10,0,l)
);
}
);
width = 20;
}
);
}
{
glyphname = "kashida-ar.50";
layers = (
{
layerId = m01;
shapes = (
{
closed = 1;
nodes = (
(50,0,l),
(50,50,l),
(-10,50,l),
(-10,0,l)
);
}
);
width = 50;
}
);
metricLeft = "=-10";
metricRight = "=0";
metricWidth = "=50";
}
{
glyphname = "kashida-ar.70";
layers = (
{
layerId = m01;
shapes = (
{
closed = 1;
nodes = (
(70,0,l),
(70,50,l),
(-10,50,l),
(-10,0,l)
);
}
);
width = 70;
}
);
metricLeft = "=-10";
metricRight = "=0";
metricWidth = "=70";
}
{
glyphname = "lam-ar.init";
layers = (
{
layerId = m01;
shapes = (
{
closed = 1;
nodes = (
(60,0,l),
(60,600,l),
(52,600,l),
(30,567,o),
(8,555,o),
(-40,550,c),
(-40,542,l),
(1,526,o),
(10,472,o),
(10,450,cs),
(10,0,l)
);
},
{
pos = (-10,0);
ref = "kashida-ar";
scale = (1.2,1);
}
);
width = 70;
}
);
metricLeft = "=-10@0";
metricRight = "=10";
}
{
glyphname = "lam-ar.isol.alt";
layers = (
{
anchors = (
{
name = bottom;
pos = (150,0);
},
{
name = top.mkmk;
pos = (248,550);
}
);
layerId = m01;
shapes = (
{
closed = 1;
nodes = (
(300,0,l),
(300,550,l),
(292,550,l),
(270,517,o),
(248,505,o),
(200,500,c),
(200,492,l),
(241,476,o),
(250,422,o),
(250,400,cs),
(250,50,l),
(100,50,ls),
(79,50,o),
(64,59,o),
(58,80,c),
(50,80,l),
(45,32,o),
(27,16,o),
(0,8,c),
(0,0,l)
);
}
);
width = 350;
}
);
metricLeft = "=0";
metricRight = "=50";
sortName = ar0904;
sortNameKeep = ar0903.ss05;
}
{
glyphname = "lam-ar.isol";
layers = (
{
anchors = (
{
name = bottom.mkmk;
pos = (150,-125);
},
{
name = top.mkmk;
pos = (248,550);
}
);
layerId = m01;
shapes = (
{
closed = 1;
nodes = (
(300,-125,l),
(300,550,l),
(292,550,l),
(270,517,o),
(248,505,o),
(200,500,c),
(200,492,l),
(241,476,o),
(250,422,o),
(250,400,cs),
(250,-75,l),
(100,-75,ls),
(79,-75,o),
(64,-66,o),
(58,-45,c),
(50,-45,l),
(45,-93,o),
(27,-109,o),
(0,-117,c),
(0,-125,l)
);
}
);
width = 350;
}
);
metricLeft = "=0";
metricRight = "=50";
}
{
glyphname = "lam_alef-ar.isol";
layers = (
{
anchors = (
{
name = bottom_1;
pos = (250,-50);
},
{
name = bottom_2;
pos = (50,-50);
},
{
name = caret_1;
pos = (150,0);
},
{
name = top_1;
pos = (282,550);
},
{
name = top_2;
pos = (27,550);
}
);
backgroundImage = {
angle = -1;
imagePath = "images/31246001-fixed.jpg";
locked = 1;
pos = (-16768,-11971);
scale = (209.3003,209.3003);
};
layerId = m01;
shapes = (
{
closed = 1;
nodes = (
(220,142,o),
(300,323,o),
(300,550,c),
(292,550,l),
(270,517,o),
(248,505,o),
(200,500,c),
(200,492,l),
(223,483,o),
(246,463,o),
(239,413,cs),
(220,288,o),
(149,140,o),
(12,39,c),
(60,14,l)
);
},
{
closed = 1;
nodes = (
(289,39,l),
(234,55,l),
(150,-29,l),
(62,59,l),
(12,39,l),
(150,-100,l)
);
},
{
closed = 1;
nodes = (
(289,39,l),
(151,139,o),
(79,288,o),
(61,413,cs),
(54,463,o),
(77,483,o),
(100,492,c),
(100,500,l),
(52,505,o),
(30,517,o),
(8,550,c),
(0,550,l),
(0,326,o),
(78,147,o),
(235,18,c)
);
}
);
width = 350;
}
);
metricRight = "=50";
}
{
glyphname = "lam_lam_heh-ar.isol";
layers = (
{
anchors = (
{
name = bottom_1;
pos = (375,0);
},
{
name = bottom_2;
pos = (275,0);
},
{
name = bottom_3;
pos = (95,0);
},
{
name = caret_1;
pos = (225,0);
},
{
name = caret_2;
pos = (325,0);
},
{
name = topAlt_1;
pos = (375,500);
},
{
name = topAlt_2;
pos = (201,500);
},
{
name = topAlt_3;
pos = (75,330);
}
);
layerId = m01;
shapes = (
{
closed = 1;
nodes = (
(400,0,l),
(400,480,l),
(392,480,l),
(370,447,o),
(348,435,o),
(300,430,c),
(300,422,l),
(341,406,o),
(350,352,o),
(350,330,cs),
(350,0,l)
);
},
{
closed = 1;
nodes = (
(300,305,l),
(196,459,l),
(190,455,l),
(190,415,o),
(179,392,o),
(141,362,c),
(146,355,l),
(189,365,o),
(226,325,o),
(239,307,cs),
(300,216,l)
);
},
{
closed = 1;
nodes = (
(400,0,l),
(400,50,l),
(28,50,l),
(0,16,l),
(0,0,l)
);
},
{
closed = 1;
nodes = (
(300,0,l),
(300,300,l),
(250,360,l),
(250,0,l)
);
},
{
closed = 1;
nodes = (
(200,0,l),
(200,310,l),
(192,310,l),
(170,277,o),
(148,265,o),
(100,260,c),
(100,252,l),
(141,236,o),
(150,182,o),
(150,160,cs),
(150,0,l)
);
},
{
closed = 1;
nodes = (
(149,181,l),
(59,149,o),
(18,86,o),
(0,16,c),
(48,4,l),
(64,64,o),
(97,110,o),
(170,134,c)
);
}
);
width = 450;
}
);
metricLeft = "=0";
metricRight = "lam-ar.init";
}
{
glyphname = "meem-ar.isol.alt";
layers = (
{
anchors = (
{
name = bottom;
pos = (200,0);
}
);
backgroundImage = {
angle = 125;
imagePath = "images/31246001-fixed.jpg";
locked = 1;
pos = (29021,2614);
scale = (209.3003,209.3003);
};
layerId = m01;
shapes = (
{
closed = 1;
nodes = (
(330,0,l),
(330,50,l),
(250,50,ls),
(218,50,o),
(94,59,o),
(58,100,c),
(50,100,l),
(45,52,o),
(33,30,o),
(0,8,c),
(0,0,l)
);
},
{
alignment = -1;
pos = (283,0);
ref = "meem-ar.init";
}
);
width = 550;
}
);
metricLeft = "=0";
metricRight = "=meem-ar.init";
sortName = ar0934;
sortNameKeep = ar0930.alt;
}
{
glyphname = "meem-ar.isol";
layers = (
{
anchors = (
{
name = bottom;
pos = (150,0);
}
);
backgroundImage = {
angle = 125;
imagePath = "images/31246001-fixed.jpg";
locked = 1;
pos = (28888,2614);
scale = (209.3003,209.3003);
};
layerId = m01;
shapes = (
{
closed = 1;
nodes = (
(200,0,l),
(200,50,l),
(150,50,ls),
(128,50,o),
(74,59,o),
(58,100,c),
(50,100,l),
(45,52,o),
(33,30,o),
(0,8,c),
(0,0,l)
);
},
{
alignment = -1;
pos = (150,0);
ref = "meem-ar.init";
}
);
width = 417;
},
{
anchors = (
{
name = bottom;
pos = (150,0);
}
);
associatedMasterId = m01;
backgroundImage = {
angle = 125;
imagePath = "images/31246001-fixed.jpg";
locked = 1;
pos = (28888,2614);
scale = (209.3003,209.3003);
};
layerId = "2B14468B-588A-4299-981A-B144D0342595";
name = "28 Jun 25 at 16:07";
shapes = (
{
closed = 1;
nodes = (
(200,0,l),
(200,50,l),
(150,50,ls),
(128,50,o),
(74,59,o),
(58,100,c),
(50,100,l),
(45,52,o),
(33,30,o),
(0,8,c),
(0,0,l)
);
},
{
alignment = -1;
pos = (150,0);
ref = "meem-ar.init";
},
{
closed = 1;
nodes = (
(371,92,o),
(322,116,o),
(293,150,c),
(284,150,l),
(282,126,o),
(268,112,o),
(249,105,c),
(371,23,l)
);
}
);
width = 417;
},
{
anchors = (
{
name = bottom;
pos = (150,0);
}
);
backgroundImage = {
angle = 125;
imagePath = "images/31246001-fixed.jpg";
locked = 1;
pos = (28888,2614);
scale = (209.3003,209.3003);
};
layerId = m002;
shapes = (
{
closed = 1;
nodes = (
(200,0,l),
(200,50,l),
(150,50,ls),
(128,50,o),
(74,59,o),
(58,100,c),
(50,100,l),
(45,52,o),
(33,30,o),
(0,8,c),
(0,0,l)
);
},
{
alignment = -1;
pos = (150,0);
ref = "meem-ar.init";
}
);
width = 417;
},
{
anchors = (
{
name = bottom;
pos = (150,0);
}
);
associatedMasterId = m002;
backgroundImage = {
angle = 125;
imagePath = "images/31246001-fixed.jpg";
locked = 1;
pos = (28888,2614);
scale = (209.3003,209.3003);
};
layerId = "0AB7E4D4-BDD8-4B1C-AA0E-DB020342ED2A";
name = "28 Jun 25 at 16:07";
shapes = (
{
closed = 1;
nodes = (
(200,0,l),
(200,50,l),
(150,50,ls),
(128,50,o),
(74,59,o),
(58,100,c),
(50,100,l),
(45,52,o),
(33,30,o),
(0,8,c),
(0,0,l)
);
},
{
alignment = -1;
pos = (150,0);
ref = "meem-ar.init";
},
{
closed = 1;
nodes = (
(371,92,o),
(322,116,o),
(293,150,c),
(284,150,l),
(282,126,o),
(268,112,o),
(249,105,c),
(371,23,l)
);
}
);
width = 417;
}
);
metricLeft = "=0";
metricRight = "=meem-ar.init";
}
{
glyphname = "nine-ar.dnom";
layers = (
{
layerId = m01;
shapes = (
{
closed = 1;
nodes = (
(197,44,o),
(234,78,o),
(234,135,cs),
(233,175,o),
(206,226,o),
(131,226,cs),
(55,226,o),
(28,170,o),
(28,135,cs),
(28,77,o),
(65,44,o),
(131,44,cs)
);
},
{
closed = 1;
nodes = (
(286,-87,l),
(257,-15,o),
(240,62,o),
(234,137,c),
(185,163,l),
(190,76,o),
(207,-18,o),
(242,-105,c)
);
},
{
closed = 1;
nodes = (
(93,86,o),
(75,99,o),
(75,135,cs),
(75,155,o),
(90,184,o),
(131,184,cs),
(173,184,o),
(186,160,o),
(188,135,cs),
(188,100,o),
(169,86,o),
(131,86,cs)
);
}
);
width = 312;
},
{
associatedMasterId = m01;
layerId = "5508AC4E-2B8F-4732-84B7-126A91AF9A1C";
name = "10 Apr 26 at 13:44";
shapes = (
{
ref = "nine-ar.tf";
scale = (0.8,0.7);
}
);
width = 312;
}
);
metricWidth = "=zero-ar.dnom";
}
{
glyphname = nine.dnom;
layers = (
{
layerId = m01;
shapes = (
{
closed = 1;
nodes = (
(69,185,o),
(31,130,o),
(31,75,cs),
(31,23,o),
(68,-31,o),
(142,-31,cs),
(183,-31,o),
(228,-13,o),
(255,28,c),
(235,72,l),
(225,31,o),
(185,14,o),
(147,14,cs),
(100,14,o),
(78,46,o),
(78,79,cs),
(78,110,o),
(100,143,o),
(146,143,cs),
(199,143,o),
(235,100,o),
(235,16,cs),
(235,-99,o),
(185,-142,o),
(54,-134,c),
(71,-112,l),
(71,-172,l),
(220,-188,o),
(282,-113,o),
(282,16,cs),
(282,123,o),
(227,185,o),
(146,185,cs)
);
}
);
width = 312;
},
{
associatedMasterId = m01;
layerId = "E23CFF9C-0C00-44BD-80A5-CB157EEC26EA";
name = "10 Apr 26 at 13:44";
shapes = (
{
pos = (0,-100);
ref = nine.tf;
scale = (0.8,0.7);
}
);
width = 312;
}
);
metricWidth = "=zero.dnom";
}
{
glyphname = "noonghunna-ar.isol";
layers = (
{
anchors = (
{
name = bottom.mkmk;
pos = (322,-200);
},
{
name = top;
pos = (410,200);
}
);
layerId = m01;
shapes = (
{
closed = 1;
nodes = (
(410,-200,o),
(501,-135,o),
(558,-50,cs),
(566,-37,o),
(570,-25,o),
(570,-12,cs),
(570,-2,o),
(567,8,o),
(563,18,cs),
(489,200,l),
(482,197,l),
(470,160,o),
(452,142,o),
(407,124,c),
(409,116,l),
(453,112,o),
(488,66,o),
(497,46,cs),
(540,-53,l),
(539,19,l),
(494,-77,o),
(400,-150,o),
(322,-150,cs),
(242,-150,o),
(193,-84,o),
(156,0,c),
(135,-33,l),
(174,-115,o),
(214,-200,o),
(322,-200,cs)
);
},
{
closed = 1;
nodes = (
(58,-100,l),
(74,-59,o),
(128,-40,o),
(156,-40,c),
(156,0,l),
(0,0,l),
(0,-8,l),
(33,-30,o),
(45,-52,o),
(50,-100,c)
);
}
);
width = 600;
}
);
metricLeft = "=0";
metricRight = "=50@50";
}
{
glyphname = "one-ar.dnom";
layers = (
{
layerId = m01;
shapes = (
{
closed = 1;
nodes = (
(220,-96,l),
(205,8,o),
(177,116,o),
(134,219,c),
(91,203,l),
(131,104,o),
(159,-2,o),
(174,-104,c)
);
}
);
width = 312;
},
{
associatedMasterId = m01;
layerId = "73AD9DA2-F7B4-4118-B505-D8F39428FF89";
name = "10 Apr 26 at 13:44";
shapes = (
{
ref = "one-ar.tf";
scale = (0.8,0.7);
}
);
width = 312;
}
);
metricWidth = "=zero-ar.dnom";
}
{
category = Number;
glyphname = "one-ar.tf";
layers = (
{
layerId = m01;
shapes = (
{
alignment = -1;
pos = (70,0);
ref = "one-ar";
}
);
width = 390;
},
{
associatedMasterId = m01;
layerId = "F56B1598-2763-43B6-95B8-2020382C4744";
name = "4 Jul 25 at 07:11";
shapes = (
{
closed = 1;
nodes = (
(214,10,l),
(192,173,o),
(157,342,o),
(94,500,c),
(50,481,l),
(109,326,o),
(145,160,o),
(166,0,c)
);
}
);
width = 264;
},
{
layerId = m002;
shapes = (
{
alignment = -1;
pos = (70,0);
ref = "one-ar";
}
);
width = 390;
},
{
associatedMasterId = m002;
layerId = "6270CB1C-89FD-46B7-A7CF-7F26BAF488E4";
name = "4 Jul 25 at 07:11";
shapes = (
{
closed = 1;
nodes = (
(214,10,l),
(192,173,o),
(157,342,o),
(94,500,c),
(50,481,l),
(109,326,o),
(145,160,o),
(166,0,c)
);
}
);
width = 264;
}
);
metricLeft = "=120";
metricRight = "=|";
metricWidth = "=zero-ar.tf";
script = arabic;
sortName = tf.ar3129;
sortNameKeep = ar3129.tnum;
subCategory = "Decimal Digit";
}
{
glyphname = one.dnom;
layers = (
{
layerId = m01;
shapes = (
{
closed = 1;
nodes = (
(180,-103,l),
(180,184,l),
(155,184,l),
(133,164,l),
(133,-103,l)
);
},
{
closed = 1;
nodes = (
(152,-103,l),
(152,-67,l),
(57,-76,l),
(57,-103,l)
);
},
{
closed = 1;
nodes = (
(256,-76,l),
(161,-67,l),
(161,-103,l),
(256,-103,l)
);
},
{
closed = 1;
nodes = (
(160,142,l),
(160,184,l),
(65,169,l),
(65,142,l)
);
}
);
width = 312;
},
{
associatedMasterId = m01;
layerId = "945C16AB-E6D2-4C2D-A521-3202E26E279A";
name = "10 Apr 26 at 13:44";
shapes = (
{
pos = (0,-100);
ref = one.tf;
scale = (0.8,0.7);
}
);
width = 312;
}
);
metricWidth = "=zero.dnom";
}
{
glyphname = one.tf;
layers = (
{
layerId = m01;
shapes = (
{
closed = 1;
nodes = (
(220,0,l),
(220,400,l),
(195,400,l),
(170,375,l),
(170,0,l)
);
},
{
closed = 1;
nodes = (
(185,0,l),
(185,42,l),
(75,30,l),
(75,0,l)
);
},
{
closed = 1;
nodes = (
(315,30,l),
(205,42,l),
(205,0,l),
(315,0,l)
);
},
{
closed = 1;
nodes = (
(195,350,l),
(195,400,l),
(85,380,l),
(85,350,l)
);
}
);
width = 390;
}
);
metricWidth = "=zero-ar.tf";
}
{
glyphname = "qaf-ar.isol";
layers = (
{
anchors = (
{
name = bottomAlt;
pos = (322,-200);
},
{
name = top;
pos = (455,250);
}
);
layerId = m01;
shapes = (
{
closed = 1;
nodes = (
(410,-200,o),
(500,-135,o),
(557,-50,cs),
(570,-29,o),
(571,-18,o),
(571,6,c),
(558,128,o),
(530,216,o),
(455,216,cs),
(409,216,o),
(363,165,o),
(359,77,cs),
(358,60,o),
(368,51,o),
(384,51,cs),
(515,51,l),
(515,101,l),
(414,101,l),
(420,145,o),
(441,166,o),
(455,166,cs),
(489,166,o),
(511,104,o),
(522,-10,c),
(473,-92,o),
(392,-150,o),
(322,-150,cs),
(242,-150,o),
(193,-84,o),
(156,0,c),
(135,-33,l),
(174,-115,o),
(214,-200,o),
(322,-200,cs)
);
},
{
closed = 1;
nodes = (
(58,-100,l),
(74,-59,o),
(128,-40,o),
(156,-40,c),
(156,0,l),
(0,0,l),
(0,-8,l),
(33,-30,o),
(45,-52,o),
(50,-100,c)
);
}
);
width = 615;
},
{
anchors = (
{
name = bottomAlt;
pos = (322,-200);
},
{
name = top;
pos = (455,250);
}
);
layerId = m002;
shapes = (
{
closed = 1;
nodes = (
(410,-200,o),
(500,-135,o),
(557,-50,cs),
(570,-29,o),
(571,-18,o),
(571,6,c),
(558,128,o),
(530,216,o),
(455,216,cs),
(409,216,o),
(363,165,o),
(359,77,cs),
(358,60,o),
(368,51,o),
(384,51,cs),
(515,51,l),
(515,101,l),
(414,101,l),
(420,145,o),
(441,166,o),
(455,166,cs),
(489,166,o),
(511,104,o),
(522,-10,c),
(473,-92,o),
(392,-150,o),
(322,-150,cs),
(242,-150,o),
(193,-84,o),
(156,0,c),
(135,-33,l),
(174,-115,o),
(214,-200,o),
(322,-200,cs)
);
},
{
closed = 1;
nodes = (
(58,-100,l),
(74,-59,o),
(128,-40,o),
(156,-40,c),
(156,0,l),
(0,0,l),
(0,-8,l),
(33,-30,o),
(45,-52,o),
(50,-100,c)
);
}
);
width = 615;
}
);
metricRight = "=50@50";
}
{
glyphname = "seen-ar.init";
kernLeft = beh;
layers = (
{
anchors = (
{
name = bottom;
pos = (183,0);
},
{
name = top;
pos = (176,200);
}
);
layerId = m01;
shapes = (
{
closed = 1;
nodes = (
(323,254,l),
(315,253,l),
(298,218,o),
(277,203,o),
(231,191,c),
(232,182,l),
(275,172,o),
(291,121,o),
(294,99,c),
(300,50,l),
(357,0,l)
);
},
{
closed = 1;
nodes = (
(123,0,l),
(95,205,l),
(87,204,l),
(70,169,o),
(49,154,o),
(3,142,c),
(4,133,l),
(47,123,o),
(63,72,o),
(66,50,c),
(73,0,l)
);
},
{
closed = 1;
nodes = (
(356,0,l),
(315,50,l),
(-10,50,l),
(-10,0,l)
);
},
{
closed = 1;
nodes = (
(236,20,l),
(208,225,l),
(200,224,l),
(183,189,o),
(162,174,o),
(116,162,c),
(117,153,l),
(160,143,o),
(176,92,o),
(179,70,c),
(186,20,l)
);
}
);
width = 400;
}
);
metricLeft = "=-10";
metricRight = "=50@50";
}
{
glyphname = "seen-ar.isol";
layers = (
{
anchors = (
{
name = bottom;
pos = (650,0);
},
{
name = top;
pos = (603,200);
}
);
layerId = m01;
shapes = (
{
closed = 1;
nodes = (
(397,-150,o),
(473,-125,o),
(530,-58,cs),
(546,-39,o),
(553,-24,o),
(550,0,cs),
(522,205,l),
(514,204,l),
(497,169,o),
(476,154,o),
(430,142,c),
(431,133,l),
(474,123,o),
(490,72,o),
(493,50,cs),
(507,-50,l),
(513,-8,l),
(463,-71,o),
(387,-100,o),
(322,-100,cs),
(242,-100,o),
(193,-34,o),
(156,50,c),
(135,17,l),
(174,-65,o),
(214,-150,o),
(322,-150,cs)
);
},
{
closed = 1;
nodes = (
(58,-50,l),
(74,-9,o),
(128,10,o),
(156,10,c),
(156,50,l),
(0,50,l),
(0,42,l),
(33,20,o),
(45,-2,o),
(50,-50,c)
);
},
{
closed = 1;
nodes = (
(783,0,l),
(750,50,l),
(540,50,l),
(540,0,l)
);
},
{
closed = 1;
nodes = (
(663,20,l),
(635,225,l),
(627,224,l),
(610,189,o),
(589,174,o),
(543,162,c),
(544,153,l),
(587,143,o),
(603,92,o),
(606,70,c),
(613,20,l)
);
},
{
closed = 1;
nodes = (
(749,254,l),
(741,253,l),
(724,218,o),
(703,203,o),
(657,191,c),
(658,182,l),
(701,172,o),
(717,121,o),
(720,99,c),
(726,50,l),
(783,0,l)
);
}
);
width = 826;
},
{
anchors = (
{
name = bottom;
pos = (650,0);
},
{
name = top;
pos = (603,200);
}
);
layerId = m002;
shapes = (
{
closed = 1;
nodes = (
(397,-150,o),
(473,-125,o),
(530,-58,cs),
(546,-39,o),
(553,-24,o),
(550,0,cs),
(522,205,l),
(514,204,l),
(497,169,o),
(476,154,o),
(430,142,c),
(431,133,l),
(474,123,o),
(490,72,o),
(493,50,cs),
(507,-50,l),
(513,-8,l),
(463,-71,o),
(387,-100,o),
(322,-100,cs),
(242,-100,o),
(193,-34,o),
(156,50,c),
(135,17,l),
(174,-65,o),
(214,-150,o),
(322,-150,cs)
);
},
{
closed = 1;
nodes = (
(58,-50,l),
(74,-9,o),
(128,10,o),
(156,10,c),
(156,50,l),
(0,50,l),
(0,42,l),
(33,20,o),
(45,-2,o),
(50,-50,c)
);
},
{
closed = 1;
nodes = (
(783,0,l),
(750,50,l),
(540,50,l),
(540,0,l)
);
},
{
closed = 1;
nodes = (
(663,20,l),
(635,225,l),
(627,224,l),
(610,189,o),
(589,174,o),
(543,162,c),
(544,153,l),
(587,143,o),
(603,92,o),
(606,70,c),
(613,20,l)
);
},
{
closed = 1;
nodes = (
(749,254,l),
(741,253,l),
(724,218,o),
(703,203,o),
(657,191,c),
(658,182,l),
(701,172,o),
(717,121,o),
(720,99,c),
(726,50,l),
(783,0,l)
);
}
);
width = 826;
}
);
metricLeft = "=noon-ar.isol";
metricRight = "=seen-ar.init";
}
{
glyphname = "seven-ar.dnom";
layers = (
{
layerId = m01;
shapes = (
{
closed = 1;
nodes = (
(179,-103,l),
(198,-8,o),
(229,96,o),
(281,222,c),
(311,196,l),
(211,235,l),
(240,237,l),
(186,109,o),
(165,14,o),
(136,-96,c),
(176,-97,l),
(147,14,o),
(126,109,o),
(72,237,c),
(101,235,l),
(1,196,l),
(31,222,l),
(83,96,o),
(114,-8,o),
(133,-104,c)
);
}
);
width = 312;
},
{
associatedMasterId = m01;
layerId = "F9AF6865-0AE1-4AA6-8275-300BADC0F0E5";
name = "10 Apr 26 at 13:44";
shapes = (
{
ref = "seven-ar.tf";
scale = (0.8,0.7);
}
);
width = 312;
}
);
metricWidth = "=zero-ar.dnom";
}
{
glyphname = seven.dnom;
layers = (
{
layerId = m01;
shapes = (
{
closed = 1;
nodes = (
(240,142,l),
(280,149,l),
(280,184,l),
(33,184,l),
(33,141,l)
);
},
{
closed = 1;
nodes = (
(160,85,o),
(78,-75,o),
(73,-198,c),
(46,-156,l),
(145,-156,l),
(120,-196,l),
(125,-82,o),
(194,79,o),
(282,153,c),
(248,168,l)
);
},
{
closed = 1;
nodes = (
(63,107,l),
(73,169,l),
(33,162,l),
(33,107,l)
);
}
);
width = 312;
},
{
associatedMasterId = m01;
layerId = "0EA0A3DE-6A70-4A10-9403-1B3BE43A55C8";
name = "10 Apr 26 at 13:44";
shapes = (
{
pos = (0,-100);
ref = seven.tf;
scale = (0.8,0.7);
}
);
width = 312;
}
);
metricWidth = "=zero.dnom";
}
{
glyphname = "sevenFarsi-ar.urdu.dnom";
layers = (
{
layerId = m01;
shapes = (
{
closed = 1;
nodes = (
(202,-47,o),
(140,-45,o),
(46,-60,c),
(68,-75,l),
(109,12,o),
(147,109,o),
(174,205,c),
(131,219,l),
(102,118,o),
(61,13,o),
(13,-86,c),
(3,-71,l),
(52,-113,l),
(28,-106,l),
(130,-87,o),
(188,-87,o),
(289,-104,c),
(297,-62,l)
);
}
);
width = 312;
},
{
associatedMasterId = m01;
layerId = "9B3FDB8C-19D5-45B0-A151-2E9078B7B325";
name = "10 Apr 26 at 13:44";
shapes = (
{
ref = "sevenFarsi-ar.urdu.tf";
scale = (0.8,0.7);
}
);
width = 312;
}
);
metricWidth = "=zero-ar.dnom";
sortName = dnom.ar3149;
sortNameKeep = ar3177.urdu.dnom;
}
{
glyphname = "sevenFarsi-ar.urdu";
kernLeft = "eight-ar";
layers = (
{
layerId = m01;
shapes = (
{
closed = 1;
nodes = (
(288,70,o),
(211,73,o),
(103,54,c),
(117,43,l),
(168,165,o),
(212,299,o),
(246,433,c),
(200,450,l),
(164,304,o),
(111,153,o),
(50,10,c),
(19,67,l),
(118,-32,l),
(51,-7,l),
(188,23,o),
(263,24,o),
(391,0,c),
(400,50,l)
);
}
);
width = 450;
},
{
associatedMasterId = m01;
layerId = "1FF49FCB-87DF-4379-B77C-5694559C335D";
name = "4 Jul 25 at 08:32";
shapes = (
{
alignment = -1;
pos = (-4,450);
ref = "seven-ar";
scale = (1,-1);
}
);
visible = 1;
width = 443;
}
);
metricLeft = "=eight-ar@449";
metricRight = "=four-ar";
sortName = ar3149;
sortNameKeep = ar3177.urdu;
}
{
glyphname = "six-ar.dnom";
layers = (
{
layerId = m01;
shapes = (
{
closed = 1;
nodes = (
(289,-87,l),
(248,14,o),
(233,123,o),
(231,221,c),
(186,194,l),
(189,99,o),
(205,-7,o),
(244,-105,c)
);
},
{
closed = 1;
nodes = (
(233,220,l),
(164,204,o),
(93,205,o),
(24,219,c),
(25,177,l),
(89,164,o),
(154,162,o),
(219,174,c)
);
}
);
width = 312;
},
{
associatedMasterId = m01;
layerId = "0B5D0F4A-2D17-446D-9685-CCF12F551AB4";
name = "10 Apr 26 at 13:44";
shapes = (
{
ref = "six-ar.tf";
scale = (0.8,0.7);
}
);
width = 312;
}
);
metricWidth = "=zero-ar.dnom";
}
{
glyphname = six.dnom;
layers = (
{
layerId = m01;
shapes = (
{
closed = 1;
nodes = (
(243,-103,o),
(282,-49,o),
(282,6,cs),
(282,60,o),
(244,113,o),
(170,113,cs),
(129,113,o),
(84,94,o),
(57,53,c),
(77,9,l),
(87,50,o),
(127,68,o),
(165,68,cs),
(212,68,o),
(235,35,o),
(235,2,cs),
(235,-29,o),
(212,-61,o),
(166,-61,cs),
(113,-61,o),
(78,-19,o),
(78,65,cs),
(78,180,o),
(126,223,o),
(258,215,c),
(242,194,l),
(242,253,l),
(92,269,o),
(31,194,o),
(31,65,cs),
(31,-42,o),
(85,-103,o),
(166,-103,cs)
);
}
);
width = 312;
},
{
associatedMasterId = m01;
layerId = "8A394E52-10DA-4A55-A016-43A1AD5A4AFF";
name = "10 Apr 26 at 13:44";
shapes = (
{
pos = (0,-100);
ref = six.tf;
scale = (0.8,0.7);
}
);
width = 312;
}
);
metricWidth = "=zero.dnom";
}
{
glyphname = "sixFarsi-ar.dnom";
layers = (
{
layerId = m01;
shapes = (
{
closed = 1;
nodes = (
(193,-2,o),
(221,104,o),
(261,203,c),
(218,219,l),
(175,116,o),
(147,8,o),
(132,-96,c),
(178,-104,l)
);
},
{
closed = 1;
nodes = (
(53,216,l),
(51,150,o),
(99,107,o),
(157,107,cs),
(189,107,o),
(218,121,o),
(238,145,c),
(200,170,l),
(195,157,o),
(179,149,o),
(160,149,cs),
(132,149,o),
(98,167,o),
(100,215,c)
);
}
);
width = 312;
},
{
associatedMasterId = m01;
layerId = "8CF2F00B-BA2E-45FD-A084-3CBFC3345180";
name = "10 Apr 26 at 13:44";
shapes = (
{
ref = "sixFarsi-ar.tf";
scale = (0.8,0.7);
}
);
width = 312;
}
);
metricWidth = "=zero-ar.dnom";
sortName = dnom.ar3145;
sortNameKeep = ar3174.dnom;
}
{
glyphname = "tah-ar.isol";
layers = (
{
anchors = (
{
name = bottom;
pos = (287,0);
},
{
name = top;
pos = (406,200);
}
);
backgroundImage = {
angle = 1;
imagePath = "images/31246001-fixed.jpg";
locked = 1;
pos = (-13240,-10890);
scale = (209.3003,209.3003);
};
layerId = m01;
shapes = (
{
closed = 1;
nodes = (
(62,0,l),
(380,423,l),
(319,423,l),
(0,0,l)
);
},
{
closed = 1;
nodes = (
(507,0,l),
(459,50,l),
(52,50,l),
(52,0,l)
);
},
{
closed = 1;
nodes = (
(487,150,l),
(442,100,l),
(449,50,l),
(507,0,l)
);
},
{
closed = 1;
nodes = (
(459,100,l),
(487,150,l),
(125,150,l),
(125,100,l)
);
},
{
closed = 1;
nodes = (
(380,423,l),
(212,550,l),
(207,544,l),
(220,506,o),
(216,481,o),
(192,440,c),
(198,435,l),
(235,458,o),
(284,433,o),
(302,420,cs),
(333,396,l)
);
}
);
width = 550;
},
{
anchors = (
{
name = bottom;
pos = (225,0);
},
{
name = top;
pos = (350,150);
}
);
associatedMasterId = m01;
attr = {
coordinates = (
0,
0
);
};
backgroundImage = {
angle = 1;
imagePath = "images/31246001-fixed.jpg";
locked = 1;
pos = (-13240,-10890);
scale = (209.3003,209.3003);
};
layerId = "A0603E6A-48E1-4FAD-BD5C-BFA9B8F0D0B5";
name = "5 Oct 24 at 15:35";
shapes = (
{
closed = 1;
nodes = (
(62,0,l),
(380,423,l),
(319,423,l),
(0,0,l)
);
},
{
closed = 1;
nodes = (
(407,0,l),
(359,50,l),
(52,50,l),
(52,0,l)
);
},
{
closed = 1;
nodes = (
(387,150,l),
(342,100,l),
(349,50,l),
(407,0,l)
);
},
{
closed = 1;
nodes = (
(359,100,l),
(387,150,l),
(125,150,l),
(125,100,l)
);
},
{
closed = 1;
nodes = (
(380,423,l),
(212,550,l),
(207,544,l),
(220,506,o),
(216,481,o),
(192,440,c),
(198,435,l),
(235,458,o),
(284,433,o),
(302,420,cs),
(333,396,l)
);
}
);
width = 450;
},
{
anchors = (
{
name = bottom;
pos = (2350,0);
},
{
name = top;
pos = (2350,200);
}
);
associatedMasterId = m01;
attr = {
coordinates = (
200,
0
);
};
backgroundImage = {
angle = 1;
imagePath = "images/31246001-fixed.jpg";
locked = 1;
pos = (-13240,-10890);
scale = (209.3003,209.3003);
};
layerId = "B26C1813-9E97-4B91-B1BC-67DB901777CA";
name = "{100} 5 Oct 24 at 20:09";
shapes = (
{
closed = 1;
nodes = (
(62,0,l),
(380,423,l),
(319,423,l),
(0,0,l)
);
},
{
closed = 1;
nodes = (
(4657,0,l),
(4609,50,l),
(52,50,l),
(52,0,l)
);
},
{
closed = 1;
nodes = (
(4637,150,l),
(4592,100,l),
(4599,50,l),
(4657,0,l)
);
},
{
closed = 1;
nodes = (
(4609,100,l),
(4637,150,l),
(125,150,l),
(125,100,l)
);
},
{
closed = 1;
nodes = (
(380,423,l),
(212,550,l),
(207,544,l),
(220,506,o),
(216,481,o),
(192,440,c),
(198,435,l),
(235,458,o),
(284,433,o),
(302,420,cs),
(333,396,l)
);
}
);
width = 4700;
},
{
anchors = (
{
name = bottom;
pos = (287,0);
},
{
name = top;
pos = (406,200);
}
);
backgroundImage = {
angle = 1;
imagePath = "images/31246001-fixed.jpg";
locked = 1;
pos = (-13240,-10890);
scale = (209.3003,209.3003);
};
layerId = m002;
shapes = (
{
closed = 1;
nodes = (
(62,0,l),
(380,423,l),
(319,423,l),
(0,0,l)
);
},
{
closed = 1;
nodes = (
(507,0,l),
(459,50,l),
(52,50,l),
(52,0,l)
);
},
{
closed = 1;
nodes = (
(487,150,l),
(442,100,l),
(449,50,l),
(507,0,l)
);
},
{
closed = 1;
nodes = (
(459,100,l),
(487,150,l),
(125,150,l),
(125,100,l)
);
},
{
closed = 1;
nodes = (
(380,423,l),
(212,550,l),
(207,544,l),
(220,506,o),
(216,481,o),
(192,440,c),
(198,435,l),
(235,458,o),
(284,433,o),
(302,420,cs),
(333,396,l)
);
}
);
width = 550;
},
{
anchors = (
{
name = bottom;
pos = (225,0);
},
{
name = top;
pos = (350,150);
}
);
associatedMasterId = m002;
attr = {
coordinates = (
0,
-50
);
};
backgroundImage = {
angle = 1;
imagePath = "images/31246001-fixed.jpg";
locked = 1;
pos = (-13240,-10890);
scale = (209.3003,209.3003);
};
layerId = "73CEAF98-250C-4FF3-BCF3-09FCA8DE04F3";
name = "5 Oct 24 at 15:35";
shapes = (
{
closed = 1;
nodes = (
(62,0,l),
(380,423,l),
(319,423,l),
(0,0,l)
);
},
{
closed = 1;
nodes = (
(407,0,l),
(359,50,l),
(52,50,l),
(52,0,l)
);
},
{
closed = 1;
nodes = (
(387,150,l),
(342,100,l),
(349,50,l),
(407,0,l)
);
},
{
closed = 1;
nodes = (
(359,100,l),
(387,150,l),
(125,150,l),
(125,100,l)
);
},
{
closed = 1;
nodes = (
(380,423,l),
(212,550,l),
(207,544,l),
(220,506,o),
(216,481,o),
(192,440,c),
(198,435,l),
(235,458,o),
(284,433,o),
(302,420,cs),
(333,396,l)
);
}
);
width = 450;
},
{
anchors = (
{
name = bottom;
pos = (2350,0);
},
{
name = top;
pos = (2350,200);
}
);
associatedMasterId = m002;
attr = {
coordinates = (
200,
-50
);
};
backgroundImage = {
angle = 1;
imagePath = "images/31246001-fixed.jpg";
locked = 1;
pos = (-13240,-10890);
scale = (209.3003,209.3003);
};
layerId = "FC83558E-F4B2-4237-8453-715858938579";
name = "{100} 5 Oct 24 at 20:09";
shapes = (
{
closed = 1;
nodes = (
(62,0,l),
(380,423,l),
(319,423,l),
(0,0,l)
);
},
{
closed = 1;
nodes = (
(4657,0,l),
(4609,50,l),
(52,50,l),
(52,0,l)
);
},
{
closed = 1;
nodes = (
(4637,150,l),
(4592,100,l),
(4599,50,l),
(4657,0,l)
);
},
{
closed = 1;
nodes = (
(4609,100,l),
(4637,150,l),
(125,150,l),
(125,100,l)
);
},
{
closed = 1;
nodes = (
(380,423,l),
(212,550,l),
(207,544,l),
(220,506,o),
(216,481,o),
(192,440,c),
(198,435,l),
(235,458,o),
(284,433,o),
(302,420,cs),
(333,396,l)
);
}
);
width = 4700;
}
);
metricLeft = "=0";
metricRight = "=50@50";
}
{
glyphname = "three-ar.dnom";
layers = (
{
layerId = m01;
shapes = (
{
closed = 1;
nodes = (
(123,121,o),
(145,131,o),
(160,147,c),
(175,130,o),
(195,121,o),
(217,121,cs),
(265,121,o),
(297,165,o),
(295,216,c),
(248,216,l),
(250,183,o),
(235,163,o),
(216,163,cs),
(197,163,o),
(182,182,o),
(184,216,c),
(136,216,l),
(138,183,o),
(121,163,o),
(104,163,cs),
(86,163,o),
(77,172,o),
(70,189,c),
(28,172,l),
(41,142,o),
(67,121,o),
(101,121,cs)
);
},
{
closed = 1;
nodes = (
(144,-96,l),
(129,8,o),
(101,116,o),
(58,219,c),
(15,203,l),
(55,104,o),
(83,-2,o),
(98,-104,c)
);
}
);
width = 312;
},
{
associatedMasterId = m01;
layerId = "4B30AD15-988F-486E-B110-CC7FD95AD241";
name = "10 Apr 26 at 13:44";
shapes = (
{
ref = "three-ar.tf";
scale = (0.8,0.7);
}
);
width = 312;
}
);
metricWidth = "=zero-ar.dnom";
}
{
glyphname = three.dnom;
layers = (
{
layerId = m01;
shapes = (
{
closed = 1;
nodes = (
(14,-156,l),
(94,-185,o),
(276,-184,o),
(276,-66,cs),
(276,19,o),
(170,54,o),
(5,16,c),
(90,56,l),
(90,-18,l),
(8,-19,l),
(138,15,o),
(229,-6,o),
(229,-66,cs),
(229,-158,o),
(44,-132,o),
(20,-119,c),
(37,-103,l),
(37,-175,l)
);
},
{
closed = 1;
nodes = (
(65,-3,l),
(163,-6,o),
(256,29,o),
(256,98,cs),
(256,191,o),
(132,204,o),
(50,152,c),
(81,128,l),
(136,149,o),
(209,148,o),
(209,98,cs),
(209,50,o),
(128,23,o),
(15,29,c),
(90,55,l),
(90,-9,l)
);
},
{
closed = 1;
nodes = (
(83,100,l),
(93,162,l),
(53,155,l),
(53,100,l)
);
}
);
width = 312;
},
{
associatedMasterId = m01;
layerId = "48CACAE7-D8C7-40B0-B7F5-C5DBDBF08199";
name = "10 Apr 26 at 13:44";
shapes = (
{
pos = (0,-100);
ref = three.tf;
scale = (0.8,0.7);
}
);
width = 312;
}
);
metricWidth = "=zero.dnom";
}
{
glyphname = three.tf;
layers = (
{
layerId = m01;
shapes = (
{
closed = 1;
nodes = (
(-11,-58,l),
(58,-114,o),
(340,-136,o),
(340,48,cs),
(340,174,o),
(192,222,o),
(-36,148,c),
(116,232,l),
(116,112,l),
(-23,112,l),
(158,173,o),
(290,144,o),
(290,48,cs),
(290,-96,o),
(32,-48,o),
(19,-27,c),
(50,7,l),
(50,-118,l)
);
},
{
closed = 1;
nodes = (
(32,148,l),
(172,127,o),
(315,176,o),
(315,283,cs),
(315,409,o),
(171,429,o),
(70,360,c),
(103,332,l),
(172,361,o),
(265,358,o),
(265,283,cs),
(265,205,o),
(153,167,o),
(-3,181,c),
(116,229,l),
(116,123,l)
);
},
{
closed = 1;
nodes = (
(100,290,l),
(111,368,l),
(70,360,l),
(70,290,l)
);
}
);
width = 390;
}
);
metricWidth = "=zero-ar.tf";
}
{
glyphname = "threedotsupabove-ar";
layers = (
{
anchors = (
{
name = _top;
pos = (88,-50);
},
{
name = top;
pos = (88,150);
}
);
layerId = m01;
shapes = (
{
closed = 1;
nodes = (
(108,75,o),
(125,92,o),
(125,113,cs),
(125,133,o),
(108,150,o),
(88,150,cs),
(67,150,o),
(50,133,o),
(50,113,cs),
(50,92,o),
(67,75,o),
(88,75,cs)
);
},
{
closed = 1;
nodes = (
(58,0,o),
(75,17,o),
(75,38,cs),
(75,58,o),
(58,75,o),
(38,75,cs),
(17,75,o),
(0,58,o),
(0,38,cs),
(0,17,o),
(17,0,o),
(38,0,cs)
);
},
{
closed = 1;
nodes = (
(158,0,o),
(175,17,o),
(175,38,cs),
(175,58,o),
(158,75,o),
(138,75,cs),
(117,75,o),
(100,58,o),
(100,38,cs),
(100,17,o),
(117,0,o),
(138,0,cs)
);
}
);
width = 175;
}
);
metricLeft = "=0";
metricRight = "=0";
}
{
glyphname = "threedotsverticalabove-ar";
layers = (
{
anchors = (
{
name = _top;
pos = (38,-50);
},
{
name = top;
pos = (38,275);
}
);
layerId = m01;
shapes = (
{
closed = 1;
nodes = (
(58,200,o),
(75,217,o),
(75,238,cs),
(75,258,o),
(58,275,o),
(38,275,cs),
(17,275,o),
(0,258,o),
(0,238,cs),
(0,217,o),
(17,200,o),
(38,200,cs)
);
},
{
closed = 1;
nodes = (
(58,0,o),
(75,17,o),
(75,38,cs),
(75,58,o),
(58,75,o),
(38,75,cs),
(17,75,o),
(0,58,o),
(0,38,cs),
(0,17,o),
(17,0,o),
(38,0,cs)
);
},
{
closed = 1;
nodes = (
(58,100,o),
(75,117,o),
(75,138,cs),
(75,158,o),
(58,175,o),
(38,175,cs),
(17,175,o),
(0,158,o),
(0,138,cs),
(0,117,o),
(17,100,o),
(38,100,cs)
);
}
);
width = 75;
}
);
metricLeft = "=0";
metricRight = "=0";
}
{
glyphname = "two-ar.dnom";
layers = (
{
layerId = m01;
shapes = (
{
closed = 1;
nodes = (
(180,-96,l),
(165,8,o),
(137,116,o),
(94,219,c),
(51,203,l),
(91,104,o),
(119,-2,o),
(134,-104,c)
);
},
{
closed = 1;
nodes = (
(214,167,o),
(180,149,o),
(152,149,cs),
(133,149,o),
(117,157,o),
(112,170,c),
(74,145,l),
(94,121,o),
(123,107,o),
(155,107,cs),
(213,107,o),
(261,150,o),
(259,216,c),
(212,215,l)
);
}
);
width = 312;
},
{
associatedMasterId = m01;
layerId = "561E03AC-1AED-4116-AE2C-556DEACE31CD";
name = "10 Apr 26 at 13:44";
shapes = (
{
ref = "two-ar.tf";
scale = (0.8,0.7);
}
);
width = 312;
}
);
metricWidth = "=zero-ar.dnom";
}
{
glyphname = two.dnom;
layers = (
{
layerId = m01;
shapes = (
{
closed = 1;
nodes = (
(113,-74,o),
(276,-2,o),
(276,91,cs),
(276,157,o),
(219,184,o),
(160,184,cs),
(121,184,o),
(80,172,o),
(50,152,c),
(81,128,l),
(101,135,o),
(128,142,o),
(153,142,cs),
(193,142,o),
(229,128,o),
(229,91,cs),
(229,22,o),
(91,-43,o),
(35,-71,c),
(57,-104,l)
);
},
{
closed = 1;
nodes = (
(276,-103,l),
(276,-61,l),
(71,-62,l),
(37,-69,l),
(37,-103,l)
);
},
{
closed = 1;
nodes = (
(276,-82,l),
(276,-26,l),
(245,-26,l),
(235,-89,l)
);
},
{
closed = 1;
nodes = (
(82,100,l),
(111,162,l),
(53,155,l),
(53,100,l)
);
}
);
width = 312;
},
{
associatedMasterId = m01;
layerId = "4A34D4B5-EDD0-44E8-A120-D5BD0D540013";
name = "10 Apr 26 at 13:44";
shapes = (
{
pos = (0,-100);
ref = two.tf;
scale = (0.8,0.7);
}
);
width = 312;
}
);
metricWidth = "=zero.dnom";
}
{
glyphname = two.tf;
layers = (
{
layerId = m01;
shapes = (
{
closed = 1;
nodes = (
(146,45,o),
(340,146,o),
(340,273,cs),
(340,363,o),
(273,400,o),
(200,400,cs),
(154,400,o),
(106,385,o),
(70,360,c),
(103,332,l),
(128,342,o),
(160,350,o),
(191,350,cs),
(243,350,o),
(290,330,o),
(290,273,cs),
(290,173,o),
(122,81,o),
(50,40,c),
(72,2,l)
);
},
{
closed = 1;
nodes = (
(340,0,l),
(340,50,l),
(89,50,l),
(50,40,l),
(50,0,l)
);
},
{
closed = 1;
nodes = (
(340,30,l),
(340,100,l),
(310,100,l),
(299,22,l)
);
},
{
closed = 1;
nodes = (
(100,290,l),
(131,368,l),
(70,360,l),
(70,290,l)
);
}
);
width = 390;
}
);
metricWidth = "=zero-ar.tf";
}
{
glyphname = "twodotsverticalabove-ar";
layers = (
{
anchors = (
{
name = _top;
pos = (38,-50);
},
{
name = top;
pos = (38,175);
}
);
layerId = m01;
shapes = (
{
closed = 1;
nodes = (
(58,100,o),
(75,117,o),
(75,138,cs),
(75,158,o),
(58,175,o),
(38,175,cs),
(17,175,o),
(0,158,o),
(0,138,cs),
(0,117,o),
(17,100,o),
(38,100,cs)
);
},
{
closed = 1;
nodes = (
(58,0,o),
(75,17,o),
(75,38,cs),
(75,58,o),
(58,75,o),
(38,75,cs),
(17,75,o),
(0,58,o),
(0,38,cs),
(0,17,o),
(17,0,o),
(38,0,cs)
);
}
);
width = 75;
}
);
metricLeft = "=0";
metricRight = "=0";
}
{
glyphname = "twodotsverticalbelow-ar";
layers = (
{
anchors = (
{
name = _bottom;
pos = (38,225);
},
{
name = bottom;
pos = (38,0);
}
);
layerId = m01;
shapes = (
{
closed = 1;
nodes = (
(58,0,o),
(75,17,o),
(75,38,cs),
(75,58,o),
(58,75,o),
(38,75,cs),
(17,75,o),
(0,58,o),
(0,38,cs),
(0,17,o),
(17,0,o),
(38,0,cs)
);
},
{
closed = 1;
nodes = (
(58,100,o),
(75,117,o),
(75,138,cs),
(75,158,o),
(58,175,o),
(38,175,cs),
(17,175,o),
(0,158,o),
(0,138,cs),
(0,117,o),
(17,100,o),
(38,100,cs)
);
}
);
width = 75;
}
);
metricLeft = "=0";
metricRight = "=0";
}
{
glyphname = "wasla-ar";
layers = (
{
anchors = (
{
name = _top;
pos = (75,-50);
},
{
name = topAlt;
pos = (75,120);
}
);
layerId = m01;
shapes = (
{
closed = 1;
nodes = (
(175,0,l),
(147,29,l),
(29,29,l),
(29,0,l)
);
},
{
closed = 1;
nodes = (
(55,17,l),
(102,80,l),
(71,87,l),
(19,17,l)
);
},
{
closed = 1;
nodes = (
(147,58,l),
(163,87,l),
(71,87,l),
(71,58,l)
);
},
{
closed = 1;
nodes = (
(163,87,l),
(137,58,l),
(141,29,l),
(175,0,l)
);
},
{
closed = 1;
nodes = (
(21,87,l),
(9,70,o),
(0,64,o),
(-25,62,c),
(-25,54,l),
(-5,48,o),
(0,21,o),
(0,10,cs),
(0,-20,l),
(29,-20,l),
(29,87,l)
);
}
);
width = 175;
}
);
metricWidth = "=madda-ar";
}
{
glyphname = "waw-ar.isol";
kernLeft = waw;
layers = (
{
anchors = (
{
name = bottomAlt;
pos = (97,-125);
},
{
name = top;
pos = (139,175);
}
);
backgroundImage = {
angle = -1;
imagePath = "images/31246001-fixed.jpg";
locked = 1;
pos = (-20710,-7016);
scale = (209.3003,209.3003);
};
layerId = m01;
shapes = (
{
closed = 1;
nodes = (
(97,-125,ls),
(180,-125,o),
(246,-72,o),
(246,25,cs),
(246,108,o),
(198,175,o),
(139,175,cs),
(84,175,o),
(52,114,o),
(50,51,cs),
(49,34,o),
(58,25,o),
(74,25,cs),
(207,25,l),
(207,75,l),
(100,75,l),
(102,104,o),
(119,125,o),
(139,125,cs),
(165,125,o),
(196,84,o),
(196,25,cs),
(196,-41,o),
(156,-75,o),
(97,-75,cs),
(76,-75,o),
(21,-66,o),
(5,-25,c),
(-3,-25,l),
(-8,-73,o),
(-20,-95,o),
(-53,-117,c),
(-53,-125,l)
);
}
);
width = 295;
}
);
metricLeft = "=50@50";
metricRight = "=50@50";
}
{
glyphname = "yehbarree-ar.fina";
layers = (
{
anchors = (
{
name = bottom;
pos = (182,-125);
},
{
name = top;
pos = (100,250);
}
);
backgroundImage = {
imagePath = "images/31246001-fixed.jpg";
locked = 1;
pos = (-14491,-7326);
scale = (209.3003,209.3003);
};
layerId = m01;
shapes = (
{
closed = 1;
nodes = (
(600,-125,l),
(600,-117,l),
(567,-95,o),
(555,-73,o),
(550,-25,c),
(542,-25,l),
(526,-66,o),
(472,-75,o),
(450,-75,cs),
(20,-75,l),
(20,-125,l)
);
},
{
closed = 1;
nodes = (
(51,-125,l),
(62,-73,o),
(101,-27,o),
(155,0,c),
(125,42,l),
(59,7,o),
(10,-55,o),
(0,-125,c)
);
},
{
closed = 1;
nodes = (
(89,164,l),
(40,151,l),
(95,15,l),
(155,0,l)
);
},
{
closed = 1;
nodes = (
(171,196,l),
(162,253,l),
(40,151,l),
(72,113,l)
);
},
{
alignment = -1;
pos = (250,0);
ref = "kashida-ar.50";
},
{
closed = 1;
nodes = (
(263,0,l),
(162,253,l),
(129,199,l),
(209,0,l)
);
}
);
width = 300;
},
{
anchors = (
{
name = bottom;
pos = (220,-125);
},
{
name = top;
pos = (100,250);
}
);
associatedMasterId = m01;
attr = {
coordinates = (
0
);
};
backgroundImage = {
imagePath = "images/31246001-fixed.jpg";
locked = 1;
pos = (-14383,-7326);
scale = (209.3003,209.3003);
};
layerId = "D9D8395E-1D50-457A-8753-709C68DE9698";
name = "21 Nov 25 at 01:46";
shapes = (
{
closed = 1;
nodes = (
(400,-125,l),
(400,-117,l),
(367,-95,o),
(355,-73,o),
(350,-25,c),
(342,-25,l),
(326,-66,o),
(272,-75,o),
(250,-75,cs),
(20,-75,l),
(20,-125,l)
);
},
{
closed = 1;
nodes = (
(51,-125,l),
(62,-73,o),
(101,-27,o),
(155,0,c),
(125,42,l),
(59,7,o),
(10,-55,o),
(0,-125,c)
);
},
{
closed = 1;
nodes = (
(89,164,l),
(40,151,l),
(95,15,l),
(155,0,l)
);
},
{
closed = 1;
nodes = (
(171,196,l),
(162,253,l),
(40,151,l),
(72,113,l)
);
},
{
alignment = -1;
pos = (250,0);
ref = "kashida-ar.50";
},
{
closed = 1;
nodes = (
(263,0,l),
(162,253,l),
(129,199,l),
(209,0,l)
);
}
);
width = 300;
},
{
anchors = (
{
name = bottom;
pos = (2300,-125);
},
{
name = top;
pos = (100,250);
}
);
associatedMasterId = m01;
attr = {
coordinates = (
200
);
};
backgroundImage = {
imagePath = "images/31246001-fixed.jpg";
locked = 1;
pos = (-14383,-7326);
scale = (209.3003,209.3003);
};
layerId = "E0DCC76A-6A10-4D85-9809-6B43AAC647B3";
name = "21 Nov 25 at 01:46";
shapes = (
{
closed = 1;
nodes = (
(4650,-125,l),
(4650,-117,l),
(4617,-95,o),
(4605,-73,o),
(4600,-25,c),
(4592,-25,l),
(4576,-66,o),
(4522,-75,o),
(4500,-75,cs),
(20,-75,l),
(20,-125,l)
);
},
{
closed = 1;
nodes = (
(51,-125,l),
(62,-73,o),
(101,-27,o),
(155,0,c),
(125,42,l),
(59,7,o),
(10,-55,o),
(0,-125,c)
);
},
{
closed = 1;
nodes = (
(89,164,l),
(40,151,l),
(95,15,l),
(155,0,l)
);
},
{
closed = 1;
nodes = (
(171,196,l),
(162,253,l),
(40,151,l),
(72,113,l)
);
},
{
alignment = -1;
pos = (250,0);
ref = "kashida-ar.50";
},
{
closed = 1;
nodes = (
(263,0,l),
(162,253,l),
(129,199,l),
(209,0,l)
);
}
);
width = 300;
}
);
metricRight = "=0@10";
}
{
glyphname = "yehbarree-ar.isol";
layers = (
{
anchors = (
{
name = bottom;
pos = (290,0);
},
{
name = top;
pos = (70,168);
},
{
name = topAlt;
pos = (180,400);
}
);
backgroundImage = {
imagePath = "images/31246001-fixed.jpg";
locked = 1;
pos = (-14383,-7326);
scale = (209.3003,209.3003);
};
layerId = m01;
shapes = (
{
closed = 1;
nodes = (
(600,0,l),
(600,8,l),
(567,30,o),
(555,52,o),
(550,100,c),
(542,100,l),
(526,59,o),
(472,50,o),
(450,50,cs),
(58,50,l),
(58,0,l)
);
},
{
closed = 1;
nodes = (
(58,0,l),
(124,125,l),
(91,175,l),
(0,0,l)
);
},
{
closed = 1;
nodes = (
(351,125,l),
(291,175,l),
(91,175,l),
(98,125,l)
);
},
{
closed = 1;
nodes = (
(191,375,l),
(184,372,l),
(184,331,o),
(171,309,o),
(135,279,c),
(139,272,l),
(181,281,o),
(219,242,o),
(231,223,cs),
(283,141,l),
(351,125,l)
);
}
);
width = 650;
},
{
anchors = (
{
name = bottom;
pos = (180,0);
},
{
name = top;
pos = (100,336);
},
{
name = topAlt;
pos = (100,400);
}
);
associatedMasterId = m01;
attr = {
coordinates = (
0
);
};
backgroundImage = {
imagePath = "images/31246001-fixed.jpg";
locked = 1;
pos = (-14383,-7326);
scale = (209.3003,209.3003);
};
layerId = "D9D8395E-1D50-457A-8753-709C68DE9698";
name = "21 Nov 25 at 01:46";
shapes = (
{
closed = 1;
nodes = (
(360,0,l),
(360,8,l),
(327,30,o),
(315,52,o),
(310,100,c),
(302,100,l),
(286,59,o),
(232,50,o),
(210,50,cs),
(58,50,l),
(58,0,l)
);
},
{
closed = 1;
nodes = (
(58,0,l),
(124,125,l),
(91,175,l),
(0,0,l)
);
},
{
closed = 1;
nodes = (
(261,125,l),
(201,175,l),
(91,175,l),
(98,125,l)
);
},
{
closed = 1;
nodes = (
(101,375,l),
(94,372,l),
(94,331,o),
(81,309,o),
(45,279,c),
(49,272,l),
(91,281,o),
(129,242,o),
(141,223,cs),
(193,141,l),
(261,125,l)
);
}
);
width = 410;
},
{
anchors = (
{
name = bottom;
pos = (2300,0);
},
{
name = top;
pos = (70,168);
},
{
name = topAlt;
pos = (180,400);
}
);
associatedMasterId = m01;
attr = {
coordinates = (
200
);
};
backgroundImage = {
imagePath = "images/31246001-fixed.jpg";
locked = 1;
pos = (-14383,-7326);
scale = (209.3003,209.3003);
};
layerId = "E0DCC76A-6A10-4D85-9809-6B43AAC647B3";
name = "21 Nov 25 at 01:46";
shapes = (
{
closed = 1;
nodes = (
(4650,0,l),
(4650,8,l),
(4617,30,o),
(4605,52,o),
(4600,100,c),
(4592,100,l),
(4576,59,o),
(4522,50,o),
(4500,50,cs),
(58,50,l),
(58,0,l)
);
},
{
closed = 1;
nodes = (
(58,0,l),
(124,125,l),
(91,175,l),
(0,0,l)
);
},
{
closed = 1;
nodes = (
(351,125,l),
(291,175,l),
(91,175,l),
(98,125,l)
);
},
{
closed = 1;
nodes = (
(191,375,l),
(184,372,l),
(184,331,o),
(171,309,o),
(135,279,c),
(139,272,l),
(181,281,o),
(219,242,o),
(231,223,cs),
(283,141,l),
(351,125,l)
);
}
);
width = 4700;
}
);
metricRight = "=50";
}
{
glyphname = "zero-ar.dnom";
layers = (
{
layerId = m01;
shapes = (
{
closed = 1;
nodes = (
(217,65,l),
(156,119,l),
(95,65,l),
(156,10,l)
);
}
);
width = 312;
},
{
associatedMasterId = m01;
layerId = "70408AD8-DB4B-4E4A-840D-F95EEC850DDB";
name = "10 Apr 26 at 13:44";
shapes = (
{
ref = "zero-ar.tf";
scale = (0.8,0.7);
}
);
width = 312;
}
);
metricWidth = "=zero-ar.tf*.8";
}
{
glyphname = zero.dnom;
layers = (
{
layerId = m01;
shapes = (
{
closed = 1;
nodes = (
(248,-103,o),
(276,-28,o),
(276,40,cs),
(276,107,o),
(248,184,o),
(156,184,cs),
(64,184,o),
(37,107,o),
(37,40,cs),
(37,-28,o),
(64,-103,o),
(156,-103,cs)
);
},
{
closed = 1;
nodes = (
(101,-61,o),
(84,-21,o),
(84,40,cs),
(84,101,o),
(101,142,o),
(156,142,cs),
(211,142,o),
(229,101,o),
(229,40,cs),
(229,-21,o),
(211,-61,o),
(156,-61,cs)
);
}
);
width = 312;
},
{
associatedMasterId = m01;
layerId = "509EC439-6A1B-4848-884B-2B925AC5F1FD";
name = "10 Apr 26 at 13:44";
shapes = (
{
pos = (0,-100);
ref = zero.tf;
scale = (0.8,0.7);
}
);
width = 312;
}
);
metricWidth = "=zero.tf*.8";
}
{
glyphname = zero.tf;
layers = (
{
layerId = m01;
shapes = (
{
closed = 1;
nodes = (
(306,0,o),
(340,105,o),
(340,200,cs),
(340,295,o),
(306,400,o),
(195,400,cs),
(84,400,o),
(50,295,o),
(50,200,cs),
(50,105,o),
(84,0,o),
(195,0,cs)
);
},
{
closed = 1;
nodes = (
(123,50,o),
(100,111,o),
(100,200,cs),
(100,289,o),
(123,350,o),
(195,350,cs),
(267,350,o),
(290,289,o),
(290,200,cs),
(290,111,o),
(267,50,o),
(195,50,cs)
);
}
);
width = 390;
}
);
metricWidth = "=zero-ar.tf";
}
